<ttFont>
          <CharString index="0">
            -107 callgsubr
            endchar
          </CharString>
          <CharString index="1">
            -107 callgsubr
            138 hmoveto
            -107 callsubr
          </CharString>
          <CharString index="2">
            rmoveto
            -106 callsubr
          </CharString>
          <CharString index="3">
            rmoveto
            -107 callsubr
          </CharString>
          <CharString index="4">
            29 25 25 29 29 -25 25 -29 return
          </CharString>
          <CharString index="5">
            rmoveto
            2 150 -94 -1 vhcurveto
            25 31 1 1 -151 145 1 -1 rlinecurve
            -50 hlineto
            return
          </CharString>
          <CharString index="6">
            158 -105 callsubr
          </CharString>
          <CharString index="7">
            -83 callgsubr
            rlineto
            1 -1 149 93 -1 vvcurveto
            endchar
          </CharString>
          <CharString index="8">
            456 -44 -423 vlineto
            -59 0 -61 -53 -58 vhcurveto
            -52 -48 -62 -15 -65 hhcurveto
            -56 -41 17 35 -39 hvcurveto
            -60 54 -1 51 54 vvcurveto
            457 vlineto
            return
          </CharString>
          <CharString index="9">
            128 -106 callgsubr
          </CharString>
          <CharString index="10">
            -37 -38 -66 -24 -60 hhcurveto
            -115 -60 87 82 85 66 94 121 60 57 -24 -43 35 hvcurveto
            43 vlineto
            110 -27 52 -87 -75 -32 -38 -61 -38 vhcurveto
            -52 52 rlineto
            41 37 41 43 118 hhcurveto
            115 -313 rmoveto
            return
          </CharString>
          <CharString index="11">
            568 249 rmoveto
            -139 -99 -122 -158 -160 -101 124 137 138 101 124 160 158 99 -122 -140 vhcurveto
            -95 hmoveto
            186 -90 36 -73 -72 -93 -36 -186 -185 93 -36 72 73 90 36 185 vhcurveto
            return
          </CharString>
          <CharString index="12">
            hstem
            50 94 293 87 vstem
            -103 callgsubr
            return
          </CharString>
          <CharString index="13">
            -49 -56 -40 -30 -66 hhcurveto
            -74 -107 37 163 hvcurveto
            40 vmoveto
            107 45 101 98 94 56 -80 -128 vhcurveto
            return
          </CharString>
          <CharString index="14">
            -18 48 39 -18 35 hhcurveto
            46 42 30 70 23 -47 callsubr
            -16 -16 5 3 -12 hvcurveto
            return
          </CharString>
          <CharString index="15">
            30 -67 callsubr
            248 -700 rlineto
            60 hlineto
            191 547 rlineto
            5 hlineto
            185 -547 rlineto
            59 hlineto
            248 700 rlineto
            -46 hlineto
            -207 -584 16 callgsubr
            -195 584 rlineto
            -43 hlineto
            -199 -581 16 callgsubr
            -206 581 rlineto
            return
          </CharString>
          <CharString index="16">
            -72 callgsubr
            -149 100 -116 156 87 67 36 34 45 hvcurveto
            -4 callsubr
            return
          </CharString>
          <CharString index="17">
            -101 callgsubr
            hintmask 00011000
            -39 callsubr
          </CharString>
          <CharString index="18">
            -78 callgsubr
            -186 116 -183 270 171 98 73 41 34 hvcurveto
            return
          </CharString>
          <CharString index="19">
            -20 hstem
            100 callsubr
            vstem
            -102 callgsubr
            return
          </CharString>
          <CharString index="20">
            -20 hstem
            -93 callgsubr
            return
          </CharString>
          <CharString index="21">
            -20 hstem
            -92 callgsubr
            return
          </CharString>
          <CharString index="22">
            hintmask 11100000
            -100 callgsubr
            return
          </CharString>
          <CharString index="23">
            -63 85 72 callsubr
            -310 vlineto
            -65 callsubr
            vlineto
            return
          </CharString>
          <CharString index="24">
            -63 callsubr
            hintmask 00100000
            -93 callsubr
            hintmask 00010000
            -65 callgsubr
          </CharString>
          <CharString index="25">
            86 68 -36 -78 10 hvcurveto
            68 hlineto
            100 -16 -103 58 -118 hhcurveto
            -123 -106 -64 -121 hvcurveto
            -237 408 75 -208 vvcurveto
            -86 -69 -39 -105 vhcurveto
            return
          </CharString>
          <CharString index="26">
            -326 700 rlineto
            -50 hlineto
            -296 -700 rlineto
            46 hlineto
            88 206 rlineto
            return
          </CharString>
          <CharString index="27">
            158 -104 callsubr
          </CharString>
          <CharString index="28">
            125 99 -58 -56 16 hvcurveto
            72 hlineto
            60 -23 -88 98 -198 hhcurveto
            -227 -163 -130 -222 -188 116 -184 266 100 79 26 27 50 hvcurveto
            return
          </CharString>
          <CharString index="29">
            30 -67 callsubr
            242 -435 rlineto
            -265 91 274 vlineto
            246 426 -30 callgsubr
            return
          </CharString>
          <CharString index="30">
            -65 -69 -79 -31 -94 hhcurveto
            -209 -110 155 171 181 122 128 169 hvcurveto
            return
          </CharString>
          <CharString index="31">
            hstem
            39 callgsubr
            vstem
            -82 callgsubr
            return
          </CharString>
          <CharString index="32">
            55 -361 293 -40 callsubr
            return
          </CharString>
          <CharString index="33">
            -1 15 callgsubr
            37 0 44 -44 189 491 104 callsubr
            84 -61 73 335 84 hintmask 10101101
            60 177 rmoveto
            -113 4 109 -76 145 hhcurveto
            159 98 75 127 hvcurveto
            hintmask 10101011
            262 -419 -60 163 vvcurveto
            59 57 54 105 85 54 -36 -78 10 vhcurveto
            79 hlineto
            103 -16 -107 55 -107 hhcurveto
            -130 -103 -64 -123 hvcurveto
            -265 408 88 -185 vvcurveto
            -95 -70 -36 -102 vhcurveto
            hintmask 10011101
            -131 -41 100 45 -3 hvcurveto
            hintmask 11001101
            227 -226 -39 callgsubr
          </CharString>
          <CharString index="34">
            264 77 callgsubr
            -118 -41 -43 -41 -37 hvcurveto
            52 -52 rlineto
            61 38 32 38 75 hhcurveto
            87 27 -52 -110 hvcurveto
            -43 vlineto
            43 -35 -57 24 -60 hhcurveto
            -121 -66 -94 -85 return
          </CharString>
          <CharString index="35">
            -146 15 callgsubr
            37 0 97 callsubr
            50 69 -49 49 -49 67 61 232 -75 50 -50 75 hintmask 1010101000100000
            405 386 rmoveto
            73 -70 52 -104 -90 -71 -42 -108 vhcurveto
            -144 285 0 -104 vvcurveto
            -35 -21 -50 -94 vhcurveto
            hintmask 1001110010000000
            -92 -29 73 35 hvcurveto
            -69 hlineto
            -74 61 -74 128 137 54 60 84 vhcurveto
            hintmask 1100100101000000
            167 -293 -8 95 vvcurveto
            36 21 49 78 85 26 -50 -35 vhcurveto
            -55 -435 rmoveto
            hintmask 1100110010000000
            -94 -171 34 hlineto
            endchar
          </CharString>
          <CharString index="36">
            -63 callsubr
            hintmask 00010000
            -93 callsubr
            hintmask 00001000
            -65 callgsubr
          </CharString>
          <CharString index="37">
            -5 callsubr
            0 19 -33 16 -66 callgsubr
            return
          </CharString>
          <CharString index="38">
            -7 callsubr
            -24 callgsubr
            return
          </CharString>
          <CharString index="39">
            709 -75 callgsubr
            return
          </CharString>
          <CharString index="40">
            700 rmoveto
            return
          </CharString>
          <CharString index="41">
            82 callsubr
            13 callgsubr
            267 94 -60 60 -60 99 hintmask 11011001
            5 callsubr
            hintmask 11011010
            -29 callsubr
            hintmask 10111100
            12 callgsubr
            endchar
          </CharString>
          <CharString index="42">
            -103 -62 -47 -70 -113 -3 103 27 vhcurveto
            330 return
          </CharString>
          <CharString index="43">
            80 -250 rmoveto
            85 332 4 hlineto
            -69 27 65 -25 64 hhcurveto
            134 95 103 158 159 -95 103 -134 -80 -51 -30 -62 -25 hvcurveto
            -4 hlineto
            return
          </CharString>
          <CharString index="44">
            rmoveto
            25 14 26 19 23 hhcurveto
            17 17 -7 -6 15 hvcurveto
            return
          </CharString>
          <CharString index="45">
            -20 hstemhm
            50 92 295 85 hintmask 11011111
            -88 callgsubr
            hintmask 11101111
            -90 callgsubr
            return
          </CharString>
          <CharString index="46">
            211 292 rmoveto
            -9 34 40 -7 48 hhcurveto
            163 87 98 116 113 -74 97 -155 hvcurveto
            -234 -700 91 hlineto
            656 vmoveto
            105 hlineto
            113 56 -89 -81 -77 -50 -89 -120 -41 -35 3 10 -28 hvcurveto
            return
          </CharString>
          <CharString index="47">
            -20 53 callgsubr
            hintmask 1010111001000000
            -55 callgsubr
            hintmask 1001110011000000
            -19 callsubr
            hintmask 1010110101000000
            -82 callsubr
            hintmask 0110111001000000
            25 callsubr
            return
          </CharString>
          <CharString index="48">
            81 hintmask 1011001001000000
            -95 callgsubr
            hintmask 0111001001000000
            -69 callgsubr
            return
          </CharString>
          <CharString index="49">
            32 -202 -21 211 32 -32 53 459 -20 hstemhm
            80 65 -65 85 234 85 hintmask 11011010
            165 -13 callsubr
            -85 -723 65 298 5 hlineto
            -63 16 68 -24 44 hhcurveto
            49 64 34 75 24 hvcurveto
            -63 8 46 -46 66 hhcurveto
            40 32 14 32 21 hvcurveto
            -24 23 rlineto
            -20 -14 -26 -17 -19 hhcurveto
            -61 0 87 63 hvcurveto
            330 -85 -318 vlineto
            hintmask 10110110
            -84 -40 -57 -76 -118 0 107 22 vhcurveto
            endchar
          </CharString>
          <CharString index="50">
            117 77 callsubr
            -308 vlineto
            -33 callsubr
            332 19 callgsubr
            vlineto
            return
          </CharString>
          <CharString index="51">
            53 7 118 128 90 14 -72 -81 vhcurveto
            -307 85 330 vlineto
            150 -94 31 -69 -46 -55 -15 -50 -45 vhcurveto
            -11 -14 rlineto
            -4 return
          </CharString>
          <CharString index="52">
            160 -35 callgsubr
            71 callgsubr
            return
          </CharString>
          <CharString index="53">
            -20 hstemhm
            60 98 513 86 hintmask 1010111110000000
            -77 callgsubr
            hintmask 1011011110000000
            -79 callsubr
            hintmask 0111011110000000
            -41 86 vlineto
            return
          </CharString>
          <CharString index="54">
            42 callgsubr
            -51 callgsubr
            81 -85 vlineto
            85 -200 rmoveto
            hintmask 11101100
            -18 callsubr
            endchar
          </CharString>
          <CharString index="55">
            -9 callsubr
            -98 callgsubr
            endchar
          </CharString>
          <CharString index="56">
            212 rmoveto
            -111 16 callsubr
            -127 rlineto
            39 hlineto
            endchar
          </CharString>
          <CharString index="57">
            -20 40 callsubr
            hintmask 1011101001000000
            -76 callgsubr
            hintmask 0111110001000000
            -47 callgsubr
            hintmask 1011100110000000
            -44 callsubr
            return
          </CharString>
          <CharString index="58">
            112 -15 callsubr
            500 vlineto
            return
          </CharString>
          <CharString index="59">
            -335 -250 38 712 -20 124 89 callgsubr
            113 86 -86 98 hintmask 11110000
            -36 callsubr
            -96 158 rmoveto
            -29 24 -25 30 vhcurveto
            hintmask 11101000
            -103 callsubr
            -30 -24 -25 -29 hvcurveto
            endchar
          </CharString>
          <CharString index="60">
            hvcurveto
            -30 14 rlineto
            -35 -15 -24 -10 -23 hhcurveto
            return
          </CharString>
          <CharString index="61">
            hstemhm
            38 callsubr
            hintmask 11011000
            -105 callgsubr
            return
          </CharString>
          <CharString index="62">
            -49 81 273 vlineto
            120 0 118 -196 vhcurveto
            115 -390 rmoveto
            -54 -23 -57 -39 -50 hhcurveto
            -54 -69 44 84 return
          </CharString>
          <CharString index="63">
            192 -305 -63 123 vvcurveto
            34 23 50 81 80 38 -50 -35 vhcurveto
            return
          </CharString>
          <CharString index="64">
            10 callgsubr
            89 callsubr
            hintmask 10110000
            -31 callsubr
            hintmask 11010000
            -91 callsubr
            endchar
          </CharString>
          <CharString index="65">
            46 callsubr
            126 -21 127 -87 callsubr
            return
          </CharString>
          <CharString index="66">
            69 -27 -65 24 -64 hhcurveto
            -134 -95 -102 -158 -159 95 -104 134 80 51 31 62 25 hvcurveto
            4 hlineto
            return
          </CharString>
          <CharString index="67">
            310 46 -30 callsubr
            return
          </CharString>
          <CharString index="68">
            1 -150 -94 2 hvcurveto
            endchar
          </CharString>
          <CharString index="69">
            120 -9 callgsubr
            126 -21 127 -86 callsubr
            return
          </CharString>
          <CharString index="70">
            379 hmoveto
            645 8 callgsubr
            -645 vlineto
            return
          </CharString>
          <CharString index="71">
            113 -13 callsubr
            -592 vlineto
            -61 -8 -59 -54 -33 -13 16 34 -15 vhcurveto
            -50 -39 rlineto
            -39 29 41 -10 43 hhcurveto
            59 87 36 167 hvcurveto
            547 vlineto
            return
          </CharString>
          <CharString index="72">
            95 callgsubr
            3 callgsubr
            274 98 vstem
            -61 callsubr
            endchar
          </CharString>
          <CharString index="73">
            36 -13 callsubr
            -40 301 vlineto
            -317 -460 rlineto
            437 40 -314 hlineto
            317 460 rlineto
            return
          </CharString>
          <CharString index="74">
            -105 70 -47 69 42 37 17 32 32 vhcurveto
            -47 48 rlineto
            -28 -13 -21 -29 -32 hhcurveto
            -50 -2 55 33 hvcurveto
            return
          </CharString>
          <CharString index="75">
            165 hmoveto
            285 vlineto
            47 6 128 124 90 2 -92 -48 vhcurveto
            -320 85 285 vlineto
            60 14 115 111 83 14 -50 -90 vhcurveto
            -320 85 349 vlineto
            62 -19 100 -139 -39 -76 -12 -83 -40 vhcurveto
            -7 hlineto
            42 -17 -38 53 -87 hhcurveto
            -41 -76 -14 -78 -31 hvcurveto
            -4 hlineto
            return
          </CharString>
          <CharString index="76">
            331 40 rmoveto
            -17 callgsubr
            return
          </CharString>
          <CharString index="77">
            -310 251 361 55 return
          </CharString>
          <CharString index="78">
            93 1 79 74 84 vvcurveto
            74 -62 91 -140 vhcurveto
            -250 hlineto
            91 -656 104 callgsubr
            110 vlineto
            130 61 -74 -86 -93 -70 -53 -86 hvcurveto
            return
          </CharString>
          <CharString index="79">
            -20 hstem
            39 callgsubr
            vstem
            -96 callsubr
            return
          </CharString>
          <CharString index="80">
            -20 3 callgsubr
            419 91 vstem
            211 348 rmoveto
            419 -348 91 700 -91 -306 -419 53 callsubr
            hlineto
            return
          </CharString>
          <CharString index="81">
            rmoveto
            313 40 -313 hlineto
            endchar
          </CharString>
          <CharString index="82">
            -12 40 200 40 208 34 return
          </CharString>
          <CharString index="83">
            -10 callgsubr
            126 -21 127 -84 callgsubr
            return
          </CharString>
          <CharString index="84">
            -63 callsubr
            hintmask 00001000
            -93 callsubr
            hintmask 00000100
            -65 callgsubr
          </CharString>
          <CharString index="85">
            -54 -47 40 60 -4 hvcurveto
            endchar
          </CharString>
          <CharString index="86">
            45 callsubr
            248 85 hintmask 11000110
            -34 callgsubr
            hintmask 10100110
            26 callgsubr
            vlineto
            hintmask 11000110
            -20 callsubr
            return
          </CharString>
          <CharString index="87">
            103 65 48 70 113 0 -104 -27 vhcurveto
            -329 vlineto
            return
          </CharString>
          <CharString index="88">
            249 -419 -54 170 vvcurveto
            63 57 53 104 vhcurveto
            return
          </CharString>
          <CharString index="89">
            89 61 71 78 84 71 -59 -150 -152 -72 -59 -83 -74 -65 64 109 vhcurveto
            return
          </CharString>
          <CharString index="90">
            -45 -12 52 9 callgsubr
            return
          </CharString>
          <CharString index="91">
            -95 -9 callgsubr
            hstem
            246 207 rmoveto
            153 -207 rlineto
            102 hlineto
            -204 274 168 226 rlineto
            -58 hlineto
            -139 -187 -137 187 rlineto
            -101 hlineto
            187 -254 -186 -246 rlineto
            59 hlineto
            endchar
          </CharString>
          <CharString index="92">
            -13 callgsubr
            85 return
          </CharString>
          <CharString index="93">
            85 hintmask 1010010010000000
            76 callsubr
            -89 callgsubr
            hintmask 0110010010000000
            -84 callsubr
            return
          </CharString>
          <CharString index="94">
            500 rmoveto
            return
          </CharString>
          <CharString index="95">
            -1 -12 44 -44 189 377 12 callsubr
            return
          </CharString>
          <CharString index="96">
            13 -43 callgsubr
            126 -21 127 -73 callgsubr
            return
          </CharString>
          <CharString index="97">
            rmoveto
            59 callgsubr
            return
          </CharString>
          <CharString index="98">
            239 -12 44 636 44 return
          </CharString>
          <CharString index="99">
            30 77 callsubr
            40 87 154 85 -154 121 -40 -121 -332 vlineto
            -33 2 -55 50 32 21 29 28 13 vhcurveto
            47 -48 rlineto
            -32 -32 -37 -17 -42 hhcurveto
            -69 -70 47 105 hvcurveto
            308 vlineto
            return
          </CharString>
          <CharString index="100">
            127 rlineto
            return
          </CharString>
          <CharString index="101">
            30 -13 callsubr
            -40 87 -460 85 460 121 40 -121 84 vlineto
            33 2 61 50 32 20 -33 -28 13 vhcurveto
            44 47 rlineto
            32 -32 -33 16 -42 hhcurveto
            -69 -70 -47 -105 hvcurveto
            -60 vlineto
            return
          </CharString>
          <CharString index="102">
            -1 -6 -8 -1 -6 hhcurveto
            -55 -29 34 55 -37 hvcurveto
            -111 163 return
          </CharString>
          <CharString index="103">
            -29 38 rlineto
            -39 -47 -44 -17 -54 hhcurveto
            return
          </CharString>
          <CharString index="104">
            21 21 callsubr
            return
          </CharString>
          <CharString index="105">
            rlineto
            3 9 19 1 9 hhcurveto
            50 14 -20 -16 -44 -55 -7 -38 -9 -8 0 2 -7 hvcurveto
            endchar
          </CharString>
          <CharString index="106">
            324 vlineto
            48 -1 139 -176 vhcurveto
            return
          </CharString>
          <CharString index="107">
            -146 -12 11 callgsubr
            return
          </CharString>
          <CharString index="108">
            -21 206 45 449 -20 return
          </CharString>
          <CharString index="109">
            -215 -43 callgsubr
            return
          </CharString>
          <CharString index="110">
            41 15 callgsubr
            49 -32 callgsubr
            94 -49 -39 callgsubr
          </CharString>
          <CharString index="111">
            49 123 0 98 hvcurveto
            12 -96 vlineto
            1 -7 1 -6 -6 vvcurveto
            return
          </CharString>
          <CharString index="112">
            120 hmoveto
            251 hlineto
            179 61 102 96 152 -151 19 -60 3 hvcurveto
            4 vlineto
            return
          </CharString>
          <CharString index="113">
            -83 59 -74 88 88 59 74 83 70 -42 90 -105 -105 -42 -90 -70 vhcurveto
            66 hmoveto
            60 return
          </CharString>
          <CharString index="114">
            -249 39 198 52 423 48 -11 -20 return
          </CharString>
          <CharString index="115">
            -8 -12 40 443 40 return
          </CharString>
          <CharString index="116">
            -40 callsubr
            vlineto
            hintmask 00010100
            -325 -80 callsubr
          </CharString>
          <CharString index="117">
            555 -547 rlineto
            5 712 hlineto
            return
          </CharString>
          <CharString index="118">
            6 callsubr
            19 67 62 33 callsubr
            return
          </CharString>
          <CharString index="119">
            158 -44 44 return
          </CharString>
          <CharString index="120">
            -21 176 -20 return
          </CharString>
          <CharString index="121">
            92 -12 47 -14 -21 309 45 -23 23 302 44 return
          </CharString>
          <CharString index="122">
            13 callsubr
            hstemhm
            return
          </CharString>
          <CharString index="123">
            hlineto
            155 return
          </CharString>
          <CharString index="124">
            133 -12 20 callgsubr
            return
          </CharString>
          <CharString index="125">
            -64 callgsubr
            hintmask 0001001100000000
            -7 callgsubr
            hintmask 0000101100000000
            -22 callsubr
          </CharString>
          <CharString index="126">
            572 hmoveto
            55 -361 59 callsubr
            vlineto
            return
          </CharString>
          <CharString index="127">
            9 -21 33 -14 callgsubr
            return
          </CharString>
          <CharString index="128">
            -21 500 return
          </CharString>
          <CharString index="129">
            2 callsubr
            126 -21 127 -25 callgsubr
            return
          </CharString>
          <CharString index="130">
            224 20 callsubr
            32 -20 return
          </CharString>
          <CharString index="131">
            hintmask 11101000
            56 callsubr
            452 -75 callsubr
            vlineto
            return
          </CharString>
          <CharString index="132">
            -168 -23 100 45 -3 hvcurveto
            return
          </CharString>
          <CharString index="133">
            24 callgsubr
            -11 -20 return
          </CharString>
          <CharString index="134">
            vstem
            80 -13 callgsubr
            263 vlineto
            73 72 51 82 136 -138 4 -65 hvcurveto
            -120 227 hlineto
            return
          </CharString>
          <CharString index="135">
            -567 91 700 -69 vlineto
            -324 -601 16 callgsubr
            return
          </CharString>
          <CharString index="136">
            -82 60 -87 115 60 66 24 37 38 return
          </CharString>
          <CharString index="137">
            80 -15 callsubr
            302 vlineto
            return
          </CharString>
          <CharString index="138">
            82 callgsubr
            253 81 return
          </CharString>
          <CharString index="139">
            -88 -23 74 43 -1 hvcurveto
            -87 hlineto
            -102 3 64 -59 127 hhcurveto
            185 13 124 86 hvcurveto
            502 vlineto
            return
          </CharString>
          <CharString index="140">
            64 17 -67 -60 -96 -48 -30 -33 -32 -49 30 96 vhcurveto
            return
          </CharString>
          <CharString index="141">
            60 554 rmoveto
            -86 58 -75 88 88 59 75 86 67 -42 91 -105 -104 -42 -91 -67 vhcurveto
            65 hmoveto
            return
          </CharString>
          <CharString index="142">
            -11 31 -11 -21 285 33 87 33 252 34 hstemhm
            60 65 162 66 35 66 162 66 return
          </CharString>
          <CharString index="143">
            -57 -55 -2 -23 -24 -55 2 57 vhcurveto
            return
          </CharString>
          <CharString index="144">
            72 50 65 78 77 35 -64 -31 13 return
          </CharString>
          <CharString index="145">
            50 98 569 98 return
          </CharString>
          <CharString index="146">
            rmoveto
            618 63 callsubr
            91 vlineto
            415 625 rlineto
            -625 91 700 -91 vlineto
            endchar
          </CharString>
          <CharString index="147">
            58 callsubr
            230 49 -49 75 return
          </CharString>
          <CharString index="148">
            -105 160 37 callgsubr
            return
          </CharString>
          <CharString index="149">
            2 callsubr
            124 89 callgsubr
            return
          </CharString>
          <CharString index="150">
            -20 45 callsubr
            248 85 return
          </CharString>
          <CharString index="151">
            42 210 42 return
          </CharString>
          <CharString index="152">
            hstemhm
            80 85 return
          </CharString>
          <CharString index="153">
            -122 44 callgsubr
            return
          </CharString>
          <CharString index="154">
            24 callgsubr
            -51 240 return
          </CharString>
          <CharString index="155">
            14 callgsubr
            40 return
          </CharString>
          <CharString index="156">
            -85 62 callgsubr
            return
          </CharString>
          <CharString index="157">
            700 -20 return
          </CharString>
          <CharString index="158">
            54 callgsubr
            263 258 69 callsubr
            35 hlineto
            endchar
          </CharString>
          <CharString index="159">
            524 -67 callsubr
            -85 -282 -4 hlineto
            return
          </CharString>
          <CharString index="160">
            306 63 callsubr
            91 return
          </CharString>
          <CharString index="161">
            420 70 callsubr
            return
          </CharString>
          <CharString index="162">
            hstemhm
            37 68 -40 40 -40 73 return
          </CharString>
          <CharString index="163">
            120 -58 callgsubr
            return
          </CharString>
          <CharString index="164">
            3 callgsubr
            vstem
            120 return
          </CharString>
          <CharString index="165">
            hstemhm
            33 65 -45 45 -45 67 return
          </CharString>
          <CharString index="166">
            645 63 callsubr
            return
          </CharString>
          <CharString index="167">
            -105 145 84 callsubr
            return
          </CharString>
          <CharString index="168">
            -21 258 -20 return
          </CharString>
          <CharString index="169">
            -20 hstem
            100 85 vstem
            30 callgsubr
            return
          </CharString>
          <CharString index="170">
            -91 -700 return
          </CharString>
          <CharString index="171">
            -12 44 -44 161 551 -20 return
          </CharString>
          <CharString index="172">
            -218 hvcurveto
            -110 hlineto
            return
          </CharString>
          <CharString index="173">
            9 -21 724 -20 hstem
            return
          </CharString>
          <CharString index="174">
            89 callsubr
            294 85 return
          </CharString>
          <CharString index="175">
            -21 127 -20 return
          </CharString>
          <CharString index="176">
            rmoveto
            -95 -258 return
          </CharString>
          <CharString index="177">
            51 -51 240 return
          </CharString>
          <CharString index="178">
            -88 -11 39 209 36 108 130 -40 40 hstemhm
            return
          </CharString>
          <CharString index="179">
            500 -85 return
          </CharString>
          <CharString index="180">
            -20 hstem
            230 88 vstem
            230 -220 rmoveto
            88 return
          </CharString>
          <CharString index="181">
            306 -20 3 callgsubr
            return
          </CharString>
          <CharString index="182">
            -20 hstem
            80 87 callgsubr
            return
          </CharString>
          <CharString index="183">
            80 -13 callsubr
            return
          </CharString>
          <CharString index="184">
            460 rmoveto
            return
          </CharString>
          <CharString index="185">
            251 55 return
          </CharString>
          <CharString index="186">
            198 rlineto
            -68 hlineto
            return
          </CharString>
          <CharString index="187">
            -385 -724 rlineto
            return
          </CharString>
          <CharString index="188">
            106 68 callsubr
            return
          </CharString>
          <CharString index="189">
            69 callgsubr
            22 -22 44 262 44 return
          </CharString>
          <CharString index="190">
            82 -21 396 -20 hstem
            return
          </CharString>
          <CharString index="191">
            9 callgsubr
            hstemhm
            return
          </CharString>
          <CharString index="192">
            15 callsubr
            50 return
          </CharString>
          <CharString index="193">
            33 118 33 return
          </CharString>
          <CharString index="194">
            215 21 -21 return
          </CharString>
          <CharString index="195">
            52 420 51 return
          </CharString>
          <CharString index="196">
            hstemhm
            50 95 return
          </CharString>
          <CharString index="197">
            -326 -198 -21 929 -20 hstem
            return
          </CharString>
          <CharString index="198">
            101 callgsubr
            3 callgsubr
            return
          </CharString>
          <CharString index="199">
            -227 463 49 callgsubr
            return
          </CharString>
          <CharString index="200">
            668 -20 return
          </CharString>
          <CharString index="201">
            -134 102 callsubr
            -134 return
          </CharString>
          <CharString index="202">
            -30 callsubr
            vlineto
            return
          </CharString>
          <CharString index="203">
            -228 -21 1134 -20 hstem
            return
          </CharString>
          <CharString index="204">
            11 callgsubr
            hstemhm
            return
          </CharString>
          <CharString index="205">
            -190 -88 190 hlineto
            endchar
          </CharString>
          <CharString index="206">
            32 -32 110 hstemhm
            return
          </CharString>
          <CharString index="207">
            80 91 425 44 return
          </CharString>
          <CharString index="208">
            191 88 -191 return
          </CharString>
          <CharString index="209">
            -162 -162 return
          </CharString>
          <CharString index="210">
            -20 67 hstemhm
            return
          </CharString>
          <CharString index="211">
            44 hstemhm
            60 return
          </CharString>
        <CharString name=".notdef">
          -526 endchar
        </CharString>
        <CharString name="A">
          -16 callgsubr
        </CharString>
        <CharString name="AE">
          376 0 55 154 45 96 44 250 56 hstem
          512 91 vstem
          512 254 rmoveto
          -265 hlineto
          265 396 rlineto
          -441 vmoveto
          -209 460 55 -369 295 300 44 -300 250 352 56 -465 vlineto
          -470 -700 rlineto
          58 hlineto
          139 209 rlineto
          endchar
        </CharString>
        <CharString name="Aacute">
          -24 callsubr
          -62 197 -97 callgsubr
        </CharString>
        <CharString name="Abreve">
          -10 callgsubr
          96 21 callgsubr
          219 44 callsubr
          -85 callsubr
          hintmask 00001110
          -112 324 -64 callgsubr
          hintmask 00010110
          -7 callgsubr
          hintmask 00001110
          -22 callsubr
        </CharString>
        <CharString name="Acircumflex">
          -10 callgsubr
          77 -21 176 -84 callgsubr
          34 240 -106 callgsubr
        </CharString>
        <CharString name="Adieresis">
          -10 callgsubr
          124 89 callgsubr
          243 5 callgsubr
          -85 callsubr
          hintmask 00011100
          -88 270 -105 callsubr
        </CharString>
        <CharString name="Agrave">
          -24 callsubr
          49 324 rmoveto
          -111 16 callsubr
          -127 rlineto
          39 hlineto
          endchar
        </CharString>
        <CharString name="Amacron">
          -10 callgsubr
          103 40 hstemhm
          -85 callsubr
          hintmask 00010000
          -122 195 -26 callsubr
        </CharString>
        <CharString name="Aogonek">
          106 93 callgsubr
          173 1 callsubr
          hstem
          536 61 vstem
          654 hmoveto
          -87 callgsubr
          -81 callsubr
          345 hlineto
          96 -206 rlineto
          -117 251 -54 callgsubr
          endchar
        </CharString>
        <CharString name="Aring">
          -10 callgsubr
          57 99 callgsubr
          274 86 callsubr
          -85 callsubr
          hintmask 00011110
          -24 241 -79 callgsubr
        </CharString>
        <CharString name="Atilde">
          -10 callgsubr
          104 76 callgsubr
          -85 callsubr
          hintmask 00001000
          -124 201 -71 callsubr
        </CharString>
        <CharString name="B">
          35 -66 callsubr
        </CharString>
        <CharString name="C">
          17 callsubr
          hstemhm
          50 98 hintmask 10110000
          -68 callsubr
          hintmask 11010000
          -89 callsubr
          endchar
        </CharString>
        <CharString name="CR">
          -526 endchar
        </CharString>
        <CharString name="Cacute">
          17 callsubr
          94 -21 127 -42 callgsubr
          -457 683 -97 callgsubr
        </CharString>
        <CharString name="Ccaron">
          17 callsubr
          46 85 callsubr
          98 hintmask 10100100
          -68 callsubr
          hintmask 11000100
          -89 callsubr
          -360 719 -90 callsubr
        </CharString>
        <CharString name="Ccedilla">
          133 102 callgsubr
          31 20 callgsubr
          hstemhm
          50 98 361 56 hintmask 11101110
          384 -190 rmoveto
          7 callgsubr
          9 33 154 7 90 67 32 39 rlinecurve
          -30 27 rlineto
          -77 callsubr
          hintmask 11110110
          -78 callgsubr
          -185 114 -181 265 -3 hvcurveto
          -21 -70 -2 callsubr
        </CharString>
        <CharString name="Ccircumflex">
          17 callsubr
          45 -21 176 -42 callgsubr
          -360 726 -106 callgsubr
        </CharString>
        <CharString name="Cdotaccent">
          17 callsubr
          92 70 callgsubr
          98 177 108 hintmask 10101000
          -68 callsubr
          hintmask 11001000
          -89 callsubr
          hintmask 00010100
          -414 756 -104 callsubr
        </CharString>
        <CharString name="D">
          74 callgsubr
          hstem
          130 91 415 99 vstem
          -11 callgsubr
          endchar
        </CharString>
        <CharString name="Dcaron">
          74 callgsubr
          67 callgsubr
          130 91 415 99 hintmask 11001100
          -11 callgsubr
          161 777 -74 callgsubr
        </CharString>
        <CharString name="Dcroat">
          -52 callgsubr
        </CharString>
        <CharString name="Delta">
          6 callgsubr
        </CharString>
        <CharString name="E">
          -3 callgsubr
          -50 callgsubr
          endchar
        </CharString>
        <CharString name="Eacute">
          -3 callgsubr
          106 -21 127 -20 -50 callgsubr
          -368 85 -97 callgsubr
        </CharString>
        <CharString name="Ebreve">
          -3 callgsubr
          76 21 callgsubr
          120 91 -57 44 callsubr
          hintmask 11100100
          56 callsubr
          452 -75 callsubr
          vlineto
          hintmask 00001011
          -418 64 callgsubr
          hintmask 00010011
          -7 callgsubr
          hintmask 00001011
          -22 callsubr
        </CharString>
        <CharString name="Ecaron">
          -3 callgsubr
          67 callgsubr
          120 91 hintmask 11100100
          56 callsubr
          452 -75 callsubr
          vlineto
          -272 121 -90 callsubr
        </CharString>
        <CharString name="Ecircumflex">
          -3 callgsubr
          57 -21 176 -20 -50 callgsubr
          -272 -98 callsubr
        </CharString>
        <CharString name="Edieresis">
          -3 callgsubr
          75 callgsubr
          -33 5 callgsubr
          24 callsubr
          hintmask 00010110
          -394 -101 callsubr
        </CharString>
        <CharString name="Edotaccent">
          0 55 293 46 251 55 104 108 hstemhm
          120 91 36 108 hintmask 11101000
          120 700 rmoveto
          -700 452 55 -361 293 9 callsubr
        </CharString>
        <CharString name="Egrave">
          -3 callgsubr
          106 -21 127 -20 -50 callgsubr
          -257 -51 callsubr
        </CharString>
        <CharString name="Emacron">
          -3 callgsubr
          83 40 13 callgsubr
          24 callsubr
          hintmask 00010000
          -428 83 -26 callsubr
        </CharString>
        <CharString name="Eogonek">
          93 callgsubr
          152 2 callgsubr
          3 callgsubr
          195 61 vstem
          524 hmoveto
          -87 callgsubr
          -75 callsubr
          -452 -700 vlineto
          endchar
        </CharString>
        <CharString name="Eth">
          -52 callgsubr
        </CharString>
        <CharString name="Euro">
          -29 -12 43 249 44 56 44 243 44 hstem
          71 95 vstem
          325 711 rmoveto
          -155 -84 -143 -144 -16 hvcurveto
          -45 hlineto
          -24 -44 rlineto
          66 hlineto
          -1 -8 0 -8 -8 vvcurveto
          -11 0 -10 1 -11 vhcurveto
          -42 hlineto
          -24 -44 rlineto
          70 hlineto
          -151 10 95 -141 154 hhcurveto
          90 66 34 81 54 hvcurveto
          -33 25 rlineto
          -23 -15 -49 -74 -103 hhcurveto
          -128 -45 127 122 -1 hvcurveto
          200 hlineto
          23 44 rlineto
          -224 56 254 hlineto
          23 44 rlineto
          -277 hlineto
          112 6 29 131 136 hhcurveto
          53 93 -21 -116 7 hvcurveto
          55 hlineto
          0 -22 181 -197 vhcurveto
          endchar
        </CharString>
        <CharString name="F">
          21 -21 348 55 callgsubr
          hstem
          120 91 vstem
          56 callsubr
          91 348 -40 callsubr
          vlineto
          endchar
        </CharString>
        <CharString name="G">
          -15 callgsubr
          hstemhm
          60 98 513 86 hintmask 10101110
          -77 callgsubr
          hintmask 10110110
          -79 callsubr
          hintmask 01110110
          -41 86 vlineto
          endchar
        </CharString>
        <CharString name="Gbreve">
          -15 callgsubr
          64 21 callgsubr
          60 98 103 44 callsubr
          116 86 hintmask 1010100100100000
          -77 callgsubr
          hintmask 1011000100100000
          -79 callsubr
          hintmask 0111000100100000
          -41 86 vlineto
          hintmask 0000001011000000
          -496 912 -64 callgsubr
          hintmask 0000010011000000
          -7 callgsubr
          hintmask 0000001011000000
          -22 callsubr
        </CharString>
        <CharString name="Gcircumflex">
          -15 callgsubr
          45 -21 176 -54 callsubr
          -349 828 -106 callgsubr
        </CharString>
        <CharString name="Gdotaccent">
          -15 callgsubr
          92 89 callgsubr
          60 98 196 108 209 86 hintmask 1010101010000000
          -77 callgsubr
          hintmask 1011001010000000
          -79 callsubr
          hintmask 0111001010000000
          -41 86 vlineto
          hintmask 0000010100000000
          -403 858 -104 callsubr
        </CharString>
        <CharString name="H">
          -5 callgsubr
        </CharString>
        <CharString name="Hbar">
          87 callsubr
          350 44 106 40 160 -20 3 callgsubr
          419 91 vstem
          36 -13 callsubr
          84 -500 91 350 419 -350 91 500 86 40 -86 160 -91 -160 -419 160 -91 -160 -84 hlineto
          175 -146 rmoveto
          106 419 -106 vlineto
          endchar
        </CharString>
        <CharString name="Hcircumflex">
          87 callsubr
          348 46 306 -20 77 -21 176 -27 callsubr
          209 828 -106 callgsubr
        </CharString>
        <CharString name="I">
          -215 21 -21 700 -25 callgsubr
          endchar
        </CharString>
        <CharString name="Iacute">
          22 callsubr
          -143 85 -97 callgsubr
        </CharString>
        <CharString name="Ibreve">
          2 callsubr
          96 21 callgsubr
          58 42 60 91 59 42 hintmask 11000100
          -55 callsubr
          hintmask 00011010
          -193 64 callgsubr
          hintmask 00101010
          -7 callgsubr
          hintmask 00011010
          -22 callsubr
        </CharString>
        <CharString name="Icircumflex">
          2 callsubr
          77 -21 176 -25 callgsubr
          -46 -98 callsubr
        </CharString>
        <CharString name="Idieresis">
          46 callgsubr
          hintmask 11001000
          -55 callsubr
          hintmask 00110100
          -169 -101 callsubr
        </CharString>
        <CharString name="Idotaccent">
          42 callsubr
          151 108 -99 91 hintmask 11001000
          -55 callsubr
          hintmask 00110000
          -100 -80 callsubr
        </CharString>
        <CharString name="Igrave">
          22 callsubr
          -32 -51 callsubr
        </CharString>
        <CharString name="Imacron">
          2 callsubr
          103 40 hstemhm
          160 91 hintmask 11010000
          -55 callsubr
          hintmask 00100000
          -202 83 -26 callsubr
        </CharString>
        <CharString name="Iogonek">
          -215 93 callgsubr
          173 -14 callgsubr
          hstem
          85 61 14 91 vstem
          203 hmoveto
          -87 callgsubr
          700 63 callsubr
          vlineto
          endchar
        </CharString>
        <CharString name="Itilde">
          2 callsubr
          104 76 callgsubr
          160 91 hintmask 11001000
          -55 callsubr
          hintmask 00010000
          -205 89 -83 callsubr
        </CharString>
        <CharString name="J">
          -104 64 callsubr
          hstemhm
          10 87 214 91 hintmask 10111000
          72 callgsubr
          hintmask 01111000
          32 callsubr
          endchar
        </CharString>
        <CharString name="Jcircumflex">
          -104 64 callsubr
          77 15 callsubr
          10 87 214 91 hintmask 10111110
          72 callgsubr
          hintmask 01111110
          32 callsubr
          -55 -98 callsubr
        </CharString>
        <CharString name="K">
          98 21 -56 callgsubr
          endchar
        </CharString>
        <CharString name="L">
          0 55 645 51 callgsubr
          endchar
        </CharString>
        <CharString name="Lacute">
          101 callgsubr
          126 -21 127 51 callgsubr
          4 785 -97 callgsubr
        </CharString>
        <CharString name="Lcaron">
          0 55 409 -21 257 -20 21 32 callgsubr
          hintmask 11101000
          120 hmoveto
          700 91 -645 361 -55 vlineto
          hintmask 11011000
          -188 701 38 callgsubr
        </CharString>
        <CharString name="Ldot">
          0 55 461 108 76 32 callgsubr
          36 108 hintmask 10110000
          19 callsubr
          hintmask 01001000
          127 570 -104 callsubr
        </CharString>
        <CharString name="Lslash">
          91 callsubr
          vstem
          572 hmoveto
          55 -361 280 vlineto
          96 65 -21 30 -75 -52 rlineto
          322 -91 -384 vlineto
          -94 -64 20 -29 74 50 rlineto
          -273 vlineto
          endchar
        </CharString>
        <CharString name="M">
          -28 callgsubr
        </CharString>
        <CharString name="N">
          23 callsubr
          hstemhm
          120 46 518 46 hintmask 01101100
          684 -67 callsubr
          -535 -4 vlineto
          hintmask 01011100
          -19 callgsubr
          hintmask 10101100
          10 callsubr
          endchar
        </CharString>
        <CharString name="NULL">
          -626 endchar
        </CharString>
        <CharString name="Nacute">
          23 callsubr
          114 68 callsubr
          hstemhm
          120 46 518 46 hintmask 01101111
          684 -67 callsubr
          -535 -4 vlineto
          hintmask 01011111
          -19 callgsubr
          hintmask 10101111
          10 callsubr
          -402 85 -97 callgsubr
        </CharString>
        <CharString name="Ncaron">
          23 callsubr
          66 -21 176 -20 -6 callgsubr
          -306 121 -101 callgsubr
          hintmask 00001100
          -39 callsubr
        </CharString>
        <CharString name="Ntilde">
          23 callsubr
          92 69 -20 67 -6 callgsubr
          hintmask 00000100
          -464 89 -23 callsubr
        </CharString>
        <CharString name="O">
          -52 callsubr
        </CharString>
        <CharString name="OE">
          452 -12 44 -32 32 -32 55 295 44 250 56 -33 33 11 -20 hstemhm
          59 100 429 90 hintmask 1001010110000000
          588 71 rmoveto
          -17 -28 -45 -22 -71 hhcurveto
          -146 -103 106 120 -28 hvcurveto
          -7 31 -1 29 32 vvcurveto
          33 1 29 7 30 vhcurveto
          119 25 105 106 147 hhcurveto
          71 45 -24 -16 28 hvcurveto
          hintmask 1001100110000000
          90 17 rmoveto
          352 56 -482 hlineto
          hintmask 1001001110000000
          8 -37 -32 3 -37 hhcurveto
          -133 -162 -61 -181 -66 hvcurveto
          -14 -38 -8 -40 -41 vvcurveto
          -151 116 -211 267 vhcurveto
          hintmask 0101100110000000
          33 34 5 7 35 hvcurveto
          504 hlineto
          hintmask 0011100110000000
          55 -370 295 300 44 -300 vlineto
          endchar
        </CharString>
        <CharString name="Oacute">
          -53 callgsubr
          187 435 -97 callgsubr
        </CharString>
        <CharString name="Obreve">
          -9 callsubr
          64 21 callgsubr
          50 98 137 44 callsubr
          138 98 hintmask 11001001
          -105 callgsubr
          hintmask 00010110
          137 562 -20 callgsubr
        </CharString>
        <CharString name="Ocircumflex">
          -9 callsubr
          45 13 callsubr
          -98 callgsubr
          284 478 -106 callgsubr
        </CharString>
        <CharString name="Odieresis">
          -9 callsubr
          92 70 callgsubr
          98 161 5 callgsubr
          162 98 hintmask 11010010
          -105 callgsubr
          hintmask 00101100
          161 508 -105 callsubr
        </CharString>
        <CharString name="Ograve">
          -53 callgsubr
          298 562 rmoveto
          -111 16 callsubr
          -127 rlineto
          39 hlineto
          endchar
        </CharString>
        <CharString name="Ohungarumlaut">
          -9 callsubr
          73 127 -46 callsubr
          138 435 -10 callsubr
          hintmask 00100000
          -31 callgsubr
        </CharString>
        <CharString name="Omacron">
          -9 callsubr
          71 40 -46 callsubr
          hintmask 00100000
          128 433 -26 callsubr
        </CharString>
        <CharString name="Omega">
          -61 callgsubr
        </CharString>
        <CharString name="Oslash">
          250 -12 43 625 44 12 -20 hstemhm
          60 98 560 98 hintmask 10111000
          595 712 rmoveto
          -18 -34 rlineto
          hintmask 11011000
          14 -41 -47 8 -53 hhcurveto
          -264 -112 -203 -153 -105 54 -131 122 -70 hvcurveto
          -26 -50 rlineto
          69 hlineto
          13 24 rlineto
          -15 42 47 -9 55 hhcurveto
          267 113 208 148 105 -56 134 -126 69 hvcurveto
          hintmask 10111000
          32 60 rlineto
          52 -368 rmoveto
          -186 -123 -127 -157 -44 -41 9 18 -36 vhcurveto
          288 541 rlineto
          69 -54 44 -90 -111 vvcurveto
          -560 hmoveto
          hintmask 11011000
          187 121 125 159 41 38 -9 -16 35 vhcurveto
          -287 -539 rlineto
          -66 55 -41 88 109 vvcurveto
          endchar
        </CharString>
        <CharString name="Otilde">
          -9 callsubr
          72 76 callgsubr
          38 callsubr
          hintmask 11001100
          -105 callgsubr
          hintmask 00010000
          125 439 -83 callsubr
        </CharString>
        <CharString name="P">
          -13 -35 callsubr
        </CharString>
        <CharString name="Q">
          268 -67 -21 76 44 636 44 hstem
          65 99 575 100 vstem
          675 -88 rmoveto
          76 27 -95 99 rlineto
          131 78 52 134 101 vvcurveto
          152 -116 209 -274 -271 -113 -208 -153 -198 158 -165 226 45 44 6 14 43 vhcurveto
          -44 155 rmoveto
          -63 -41 71 -73 rlineto
          -13 -35 -34 -4 -36 hhcurveto
          -147 -129 119 200 189 127 128 158 163 127 -128 -189 -51 -2 -120 -124 -96 hvcurveto
          endchar
        </CharString>
        <CharString name="R">
          14 callsubr
          13 callgsubr
          267 96 hintmask 01101110
          -1 callgsubr
          hintmask 10101110
          84 callgsubr
          hintmask 01101110
          47 callgsubr
          hintmask 10011110
          -70 callsubr
          endchar
        </CharString>
        <CharString name="Racute">
          14 callsubr
          106 -21 127 32 callgsubr
          267 96 hintmask 0110111110000000
          -1 callgsubr
          hintmask 1010111110000000
          84 callgsubr
          hintmask 0110111110000000
          47 callgsubr
          hintmask 1001111110000000
          -70 callsubr
          51 431 -97 callgsubr
        </CharString>
        <CharString name="Rcaron">
          14 callsubr
          67 callgsubr
          120 91 267 96 hintmask 0110100110000000
          -1 callgsubr
          hintmask 1010100110000000
          84 callgsubr
          hintmask 0110100110000000
          47 callgsubr
          hintmask 1001100110000000
          -70 callsubr
          147 467 -101 callgsubr
          hintmask 0000011000000000
          -39 callsubr
        </CharString>
        <CharString name="S">
          -68 callgsubr
        </CharString>
        <CharString name="Sacute">
          -12 callsubr
          94 -21 127 -60 callsubr
          110 608 -97 callgsubr
        </CharString>
        <CharString name="Scaron">
          -12 callsubr
          46 -21 176 -20 53 callgsubr
          hintmask 1010001001000000
          -55 callgsubr
          hintmask 1001000011000000
          -19 callsubr
          hintmask 1010000101000000
          -82 callsubr
          hintmask 0110001001000000
          25 callsubr
          207 644 -101 callgsubr
          hintmask 0000110000000000
          -39 callsubr
        </CharString>
        <CharString name="Scedilla">
          -74 callsubr
        </CharString>
        <CharString name="Scircumflex">
          -12 callsubr
          45 -21 176 -60 callsubr
          207 651 -102 callsubr
          hintmask 1010110011000000
          -100 callsubr
        </CharString>
        <CharString name="T">
          41 21 -21 -32 callgsubr
          endchar
        </CharString>
        <CharString name="Tbar">
          41 21 -21 471 40 134 55 hstem
          288 91 vstem
          177 471 rmoveto
          111 -471 91 471 111 40 -111 134 8 callgsubr
          -134 -24 callgsubr
          endchar
        </CharString>
        <CharString name="Tcaron">
          41 80 callgsubr
          67 callgsubr
          288 91 hintmask 11001000
          -37 callsubr
          45 821 -74 callgsubr
        </CharString>
        <CharString name="Thorn">
          44 21 -21 90 44 451 43 72 -20 3 callgsubr
          280 99 vstem
          211 584 rmoveto
          8 7 1 7 hhcurveto
          173 85 -124 -105 -104 -90 -118 -183 hvcurveto
          -7 hlineto
          -134 vmoveto
          90 12 vlineto
          271 96 163 109 136 -128 130 -213 hvcurveto
          -38 72 63 callsubr
          hlineto
          endchar
        </CharString>
        <CharString name="U">
          94 -12 44 668 -88 callsubr
          endchar
        </CharString>
        <CharString name="Uacute">
          -41 callgsubr
          92 85 -97 callgsubr
        </CharString>
        <CharString name="Ubreve">
          31 callgsubr
          96 21 callgsubr
          80 91 42 44 callsubr
          89 44 hintmask 11001001
          -102 callgsubr
          hintmask 00010110
          42 212 -20 callgsubr
        </CharString>
        <CharString name="Ucircumflex">
          31 callgsubr
          77 -21 176 -88 callsubr
          188 -98 callsubr
        </CharString>
        <CharString name="Udieresis">
          31 callgsubr
          124 89 callgsubr
          80 91 66 5 callgsubr
          113 44 hintmask 11010010
          -102 callgsubr
          hintmask 00101100
          66 -101 callsubr
        </CharString>
        <CharString name="Ugrave">
          -41 callgsubr
          203 -51 callsubr
        </CharString>
        <CharString name="Uhungarumlaut">
          31 callgsubr
          105 127 -26 callgsubr
          43 85 -10 callsubr
          hintmask 00100000
          -31 callgsubr
        </CharString>
        <CharString name="Umacron">
          31 callgsubr
          103 40 -26 callgsubr
          hintmask 00100000
          32 83 -26 callsubr
        </CharString>
        <CharString name="Uogonek">
          94 93 callgsubr
          141 43 93 callsubr
          hstem
          80 91 75 61 289 44 vstem
          80 -67 callsubr
          -430 vlineto
          -106 22 -164 246 -11 vhcurveto
          -30 -22 -91 callgsubr
          40 42 38 45 31 hvcurveto
          159 8 87 111 136 vvcurveto
          -99 callsubr
          endchar
        </CharString>
        <CharString name="Uring">
          31 callgsubr
          57 99 callgsubr
          80 91 97 86 callsubr
          144 44 hintmask 11001001
          -102 callgsubr
          hintmask 00110110
          130 129 -79 callgsubr
        </CharString>
        <CharString name="Utilde">
          31 callgsubr
          104 76 callgsubr
          100 callsubr
          hintmask 11001100
          -102 callgsubr
          hintmask 00010000
          30 89 -83 callsubr
        </CharString>
        <CharString name="V">
          71 -43 callgsubr
          hstem
          30 -67 callsubr
          293 -700 rlineto
          60 hlineto
          284 700 105 callgsubr
          -233 -576 16 callgsubr
          -240 576 rlineto
          endchar
        </CharString>
        <CharString name="W">
          430 21 -21 700 -85 callgsubr
          endchar
        </CharString>
        <CharString name="Wacute">
          -38 callgsubr
          309 85 -97 callgsubr
        </CharString>
        <CharString name="Wcircumflex">
          430 -43 callgsubr
          77 -21 176 -85 callgsubr
          405 -98 callsubr
        </CharString>
        <CharString name="Wdieresis">
          430 -43 callgsubr
          124 73 callgsubr
          405 5 callgsubr
          vstem
          -92 callsubr
          283 -101 callsubr
        </CharString>
        <CharString name="Wgrave">
          -38 callgsubr
          420 -51 callsubr
        </CharString>
        <CharString name="X">
          93 -43 callgsubr
          hstem
          142 -67 callsubr
          -112 hlineto
          273 -351 -268 -349 rlineto
          54 hlineto
          239 313 27 callgsubr
          244 -313 rlineto
          113 hlineto
          -303 387 239 313 rlineto
          -53 hlineto
          -211 -275 rlineto
          -5 hlineto
          endchar
        </CharString>
        <CharString name="Y">
          13 21 -21 700 -73 callgsubr
          endchar
        </CharString>
        <CharString name="Yacute">
          -11 callsubr
          89 85 -97 callgsubr
        </CharString>
        <CharString name="Ycircumflex">
          13 -43 callgsubr
          77 -21 176 -73 callgsubr
          186 -98 callsubr
        </CharString>
        <CharString name="Ydieresis">
          13 -43 callgsubr
          124 89 callgsubr
          196 108 -32 91 -29 108 hintmask 11001000
          -78 callsubr
          hintmask 00110100
          63 -101 callsubr
        </CharString>
        <CharString name="Ygrave">
          -11 callsubr
          200 -51 callsubr
        </CharString>
        <CharString name="Z">
          68 callgsubr
          hstem
          -33 callgsubr
          endchar
        </CharString>
        <CharString name="Zacute">
          68 callgsubr
          85 callgsubr
          -33 callgsubr
          -383 85 -97 callgsubr
        </CharString>
        <CharString name="Zcaron">
          68 callgsubr
          67 callgsubr
          hintmask 11000000
          -33 callgsubr
          -287 121 -74 callgsubr
        </CharString>
        <CharString name="Zdotaccent">
          68 callgsubr
          104 89 callgsubr
          279 108 hintmask 11000000
          -33 callgsubr
          hintmask 00110000
          -340 -80 callsubr
        </CharString>
        <CharString name="a">
          -71 callgsubr
        </CharString>
        <CharString name="aacute">
          -48 callgsubr
          95 68 callsubr
          31 callsubr
          hintmask 01111111
          -73 callsubr
          hvcurveto
          hintmask 10111111
          29 callsubr
          vhcurveto
          -45 callsubr
          37 callsubr
          hvcurveto
          -206 387 -97 callgsubr
        </CharString>
        <CharString name="abreve">
          -48 callgsubr
          65 21 callgsubr
          40 86 -3 44 callsubr
          -38 -59 callsubr
          hintmask 0000010110000000
          -256 591 18 callgsubr
        </CharString>
        <CharString name="acircumflex">
          -48 callgsubr
          46 -21 176 -60 callgsubr
          -110 507 -106 callgsubr
        </CharString>
        <CharString name="acute">
          -432 606 68 callsubr
          hstem
          585 vmoveto
          -94 callgsubr
          endchar
        </CharString>
        <CharString name="adieresis">
          -48 callgsubr
          93 108 82 callgsubr
          21 5 callgsubr
          -14 81 hintmask 1011010010000000
          -95 callgsubr
          hintmask 0111010010000000
          -69 callgsubr
          hintmask 0000101100000000
          -232 537 -105 callsubr
        </CharString>
        <CharString name="ae">
          262 -12 45 206 35 16 46 141 35 hstem
          41 87 246 79 278 91 vstem
          453 274 rmoveto
          134 73 69 70 79 56 -74 -120 vhcurveto
          -9 vlineto
          -357 -158 rmoveto
          -56 -23 -58 -27 -42 hhcurveto
          -69 -54 55 77 80 58 45 65 81 34 -60 -26 8 hvcurveto
          79 35 rmoveto
          369 17 hlineto
          206 -136 50 -87 -61 -78 -28 -43 -32 vhcurveto
          59 -51 -49 12 -70 hhcurveto
          -69 -44 -12 -38 -50 hvcurveto
          30 -42 rlineto
          35 38 46 22 51 hhcurveto
          40 68 -23 -48 6 hvcurveto
          -132 vlineto
          55 -47 -65 7 -35 hhcurveto
          -121 -65 -91 -91 -79 57 -87 121 69 72 29 69 52 hvcurveto
          -48 39 67 -50 103 hhcurveto
          70 76 29 64 61 hvcurveto
          -29 30 rlineto
          -60 -57 -45 -22 -69 hhcurveto
          -97 -78 79 127 hvcurveto
          endchar
        </CharString>
        <CharString name="agrave">
          -48 callgsubr
          95 -21 127 -60 callgsubr
          -95 591 rmoveto
          -111 16 callsubr
          -127 rlineto
          39 hlineto
          endchar
        </CharString>
        <CharString name="amacron">
          -48 callgsubr
          72 40 31 callsubr
          hintmask 10110110
          -95 callgsubr
          hintmask 01110110
          -69 callgsubr
          hintmask 00001000
          -266 462 -26 callsubr
        </CharString>
        <CharString name="ampersand">
          80 -11 52 -20 -21 669 104 callsubr
          85 26 74 0 163 0 63 hintmask 10110100
          554 hmoveto
          106 hlineto
          -91 115 24 27 80 89 13 143 rlinecurve
          hintmask 01111010
          -78 hlineto
          -4 -107 -21 -63 -40 -53 -199 262 rcurveline
          93 44 34 57 55 vvcurveto
          88 -67 56 -82 -107 -44 -79 -68 -56 34 -46 43 -60 vhcurveto
          -106 -50 -82 -70 -101 vvcurveto
          -97 86 -97 163 55 63 11 60 81 vhcurveto
          -181 609 rmoveto
          63 18 -59 -35 -66 -51 -47 -36 -19 hvcurveto
          -43 53 -33 42 47 vvcurveto
          40 23 44 59 vhcurveto
          156 -577 rmoveto
          hintmask 10111010
          -47 -55 -73 -4 -21 hhcurveto
          -88 -101 63 108 60 31 46 97 51 hvcurveto
          endchar
        </CharString>
        <CharString name="aogonek">
          -86 93 callgsubr
          140 40 -28 -20 41 -21 293 43 138 37 82 callgsubr
          168 61 24 81 hintmask 0100111010000000
          -80 callgsubr
          hintmask 0001111010000000
          37 callsubr
          vhcurveto
          hintmask 1010000100000000
          33 -198 rmoveto
          -87 callgsubr
          endchar
        </CharString>
        <CharString name="approxequal">
          72 150 63 43 64 45 64 43 65 hstem
          91 383 rmoveto
          46 26 24 43 45 hhcurveto
          22 30 -7 -42 79 hvcurveto
          -40 81 43 -18 32 hhcurveto
          78 43 86 69 34 hvcurveto
          -20 9 rlineto
          -37 -27 -32 -63 -51 hhcurveto
          -11 -23 4 48 -99 hvcurveto
          30 -63 -47 26 -40 hhcurveto
          -41 -57 -30 -115 -47 hvcurveto
          21 -226 rmoveto
          54 28 30 36 37 hhcurveto
          23 28 -8 -41 80 hvcurveto
          -41 79 46 -16 31 hhcurveto
          78 42 85 68 35 hvcurveto
          -20 8 rlineto
          -42 -30 -29 -56 -51 hhcurveto
          -12 -22 5 47 -99 hvcurveto
          29 -63 -48 26 -39 hhcurveto
          -49 -57 -48 -97 -39 hvcurveto
          endchar
        </CharString>
        <CharString name="aring">
          -48 callgsubr
          26 99 callgsubr
          40 86 52 86 callsubr
          17 -59 callsubr
          hintmask 0000110110000000
          -168 508 -79 callgsubr
        </CharString>
        <CharString name="asciicircum">
          -190 775 -21 124 -20 hstem
          218 817 rmoveto
          158 -63 rlineto
          36 vlineto
          -136 88 rlineto
          -42 hlineto
          -138 -88 rlineto
          -36 vlineto
          endchar
        </CharString>
        <CharString name="asciitilde">
          305 -21 22 -21 34 30 -30 63 hstemhm
          hintmask 10010000
          87 284 rmoveto
          21 14 23 14 40 hhcurveto
          94 32 -13 -10 56 hvcurveto
          57 -10 rlineto
          hintmask 01010000
          -1 6 7 0 8 hhcurveto
          34 51 11 71 33 hvcurveto
          -23 15 rlineto
          hintmask 10100000
          -24 -23 -25 -9 -37 hhcurveto
          hintmask 10010000
          -41 -155 33 -52 hhcurveto
          -34 -54 -10 -69 -38 hvcurveto
          endchar
        </CharString>
        <CharString name="asterisk">
          -293 460 -21 261 -20 hstem
          166 502 rmoveto
          85 -63 -33 99 85 62 rlineto
          -104 hlineto
          -33 100 -31 -100 rlineto
          -105 hlineto
          83 -62 -31 -99 rlineto
          endchar
        </CharString>
        <CharString name="at">
          403 -181 37 198 27 427 34 192 37 hstem
          60 36 183 100 553 37 vstem
          789 536 rmoveto
          -86 hlineto
          -21 -62 rlineto
          63 -43 -53 5 -27 hhcurveto
          -157 -123 -133 -157 -142 91 -56 90 47 39 18 38 49 hvcurveto
          -58 37 55 -8 32 hhcurveto
          141 109 135 169 56 -7 57 -20 53 hvcurveto
          124 -49 -138 133 -209 hhcurveto
          -65 -66 -7 -23 -60 hvcurveto
          -184 -71 -111 -184 -188 vvcurveto
          -232 175 -247 287 76 102 11 93 124 vhcurveto
          -23 29 rlineto
          -27 -30 -93 -69 -159 hhcurveto
          -261 -162 226 215 209 137 146 135 53 hvcurveto
          20 50 56 9 54 hhcurveto
          246 158 -167 -219 -160 -118 -107 -85 -15 -35 10 56 15 5 25 15 48 hvcurveto
          -112 -78 rmoveto
          -29 -21 -41 -36 -56 hhcurveto
          -61 -29 51 71 166 93 128 84 50 41 -40 -60 11 hvcurveto
          endchar
        </CharString>
        <CharString name="atilde">
          -48 callgsubr
          73 69 -20 67 31 callsubr
          hintmask 10110011
          -95 callgsubr
          hintmask 01110011
          -69 callgsubr
          hintmask 00000100
          -268 468 -23 callsubr
        </CharString>
        <CharString name="b">
          -22 0 callgsubr
          45 callsubr
          294 95 hintmask 01101100
          80 hmoveto
          hintmask 10101100
          85 81 4 hlineto
          -62 25 51 -31 80 hhcurveto
          134 95 104 159 158 -95 102 -134 -64 -65 -24 -69 -27 hvcurveto
          -4 282 -85 hlineto
          85 -413 rmoveto
          hintmask 01011100
          109 65 64 74 83 72 -59 -152 -150 -71 -59 -84 -78 -61 71 89 vhcurveto
          endchar
        </CharString>
        <CharString name="backslash">
          -110 66 callsubr
          30 712 rmoveto
          387 -724 rlineto
          69 hlineto
          -385 724 rlineto
          endchar
        </CharString>
        <CharString name="bar">
          -353 96 callsubr
          100 73 vstem
          100 885 rmoveto
          -1134 73 1134 vlineto
          endchar
        </CharString>
        <CharString name="braceleft">
          -270 -143 -21 983 -20 hstemhm
          60 189 -91 168 hintmask 11100000
          60 291 rmoveto
          hintmask 11010000
          39 -4 59 -26 -119 -46 -4 -36 -39 vvcurveto
          -61 15 -118 157 -6 vhcurveto
          59 vlineto
          hintmask 11100000
          -71 17 -6 56 32 41 6 42 38 vvcurveto
          102 -39 58 -89 41 vhcurveto
          8 vlineto
          89 41 39 59 102 43 -6 38 43 vvcurveto
          hintmask 11010000
          30 6 56 71 19 vhcurveto
          58 vlineto
          -79 -3 -93 -36 -147 -40 4 -39 -40 vvcurveto
          hintmask 11100000
          -108 -46 -39 -52 -4 vhcurveto
          endchar
        </CharString>
        <CharString name="braceright">
          -268 -143 -21 983 -20 hstemhm
          30 170 -91 91 -91 189 hintmask 11001000
          298 363 rmoveto
          hintmask 11100000
          -37 3 -61 25 123 40 4 39 40 vvcurveto
          147 -96 36 -78 3 vhcurveto
          -58 vlineto
          hintmask 11010000
          67 -16 12 -49 -40 -43 -6 -38 -43 vvcurveto
          -102 37 -59 89 -41 vhcurveto
          -8 vlineto
          -89 -41 -37 -58 -102 -38 6 -42 -41 vvcurveto
          hintmask 11100000
          -41 -12 -49 -67 -15 vhcurveto
          -59 vlineto
          163 8 11 127 50 39 -4 36 46 vvcurveto
          hintmask 11001000
          105 47 39 51 5 vhcurveto
          endchar
        </CharString>
        <CharString name="bracketleft">
          91 callgsubr
          100 88 -88 175 hintmask 11010000
          100 -220 rmoveto
          175 49 hlineto
          hintmask 11100000
          -87 823 hlineto
          hintmask 11010000
          87 48 -175 hlineto
          endchar
        </CharString>
        <CharString name="bracketright">
          91 callgsubr
          30 175 -88 88 hintmask 11100000
          205 -67 callsubr
          -175 hlineto
          hintmask 11010000
          -48 87 vlineto
          hintmask 11100000
          -823 -87 -49 175 vlineto
          endchar
        </CharString>
        <CharString name="breve">
          -332 576 21 callgsubr
          0 44 callsubr
          hintmask 01110000
          712 vmoveto
          -62 callgsubr
          hintmask 10110000
          -7 callgsubr
          hintmask 01110000
          -22 callsubr
        </CharString>
        <CharString name="brokenbar">
          -378 96 callsubr
          80 85 vstem
          80 157 rmoveto
          -406 85 406 vlineto
          -85 728 rmoveto
          -406 85 406 vlineto
          endchar
        </CharString>
        <CharString name="bullet">
          -150 211 235 hstem
          120 236 vstem
          120 327 rmoveto
          -64 52 -52 66 65 53 52 64 67 -53 52 -65 -66 -52 -52 -67 vhcurveto
          endchar
        </CharString>
        <CharString name="c">
          -43 callsubr
        </CharString>
        <CharString name="cacute">
          10 callgsubr
          95 -21 127 -29 callgsubr
          -156 545 -97 callgsubr
        </CharString>
        <CharString name="caron">
          -277 558 13 callsubr
          hstem
          174 621 -101 callgsubr
          -39 callsubr
        </CharString>
        <CharString name="ccaron">
          10 callgsubr
          47 85 callsubr
          95 hintmask 10100100
          -31 callsubr
          hintmask 11000100
          -91 callsubr
          -60 581 -90 callsubr
        </CharString>
        <CharString name="ccedilla">
          -82 102 callgsubr
          32 51 348 123 -40 40 89 callsubr
          226 56 hintmask 11101110
          246 -190 rmoveto
          7 callgsubr
          9 33 77 5 61 32 42 32 rlinecurve
          -4 callsubr
          -17 callgsubr
          hintmask 11110110
          -72 callgsubr
          -145 94 -112 147 -7 hvcurveto
          -21 -71 -2 callsubr
        </CharString>
        <CharString name="ccircumflex">
          10 callgsubr
          46 -21 176 -29 callgsubr
          -60 588 -106 callgsubr
        </CharString>
        <CharString name="cdotaccent">
          10 callgsubr
          93 70 callgsubr
          95 73 108 hintmask 10101000
          -31 callsubr
          hintmask 11001000
          -91 callsubr
          hintmask 00010100
          -113 618 -104 callsubr
        </CharString>
        <CharString name="cedilla">
          -445 102 callgsubr
          43 -20 hstem
          125 56 vstem
          -190 vmoveto
          7 callgsubr
          12 44 rlineto
          -33 hlineto
          -25 -82 -2 callsubr
        </CharString>
        <CharString name="cent">
          -31 -143 -21 807 -20 hstem
          80 95 136 53 vstem
          311 643 rmoveto
          -133 vlineto
          -146 -9 -85 -113 -140 vvcurveto
          -134 89 -112 142 -12 vhcurveto
          -154 53 153 vlineto
          72 7 59 31 40 31 -29 38 rcurveline
          -46 -38 -43 -20 -53 -1 rrcurveto
          429 vlineto
          62 -6 36 -32 13 -40 rrcurveto
          69 hlineto
          -25 84 -74 31 -81 6 rrcurveto
          134 vlineto
          -189 -394 rmoveto
          157 73 47 63 11 vhcurveto
          -422 vlineto
          -75 18 -61 62 127 vvcurveto
          endchar
        </CharString>
        <CharString name="circumflex">
          -277 557 13 callsubr
          hstem
          174 628 -106 callgsubr
        </CharString>
        <CharString name="colon">
          -398 -12 108 307 73 callgsubr
          60 108 vstem
          60 42 rmoveto
          -107 callgsubr
          415 vmoveto
          -107 callsubr
        </CharString>
        <CharString name="comma">
          -372 -115 49 callgsubr
          154 96 callgsubr
          endchar
        </CharString>
        <CharString name="copyright">
          236 -10 64 96 37 318 32 109 65 hstem
          70 65 112 73 407 65 vstem
          135 350 rmoveto
          163 134 133 162 162 134 -133 -163 35 callgsubr
          -162 199 199 162 162 50 callgsubr
          383 -163 rmoveto
          -68 -65 43 112 139 72 24 51 54 27 -27 -32 10 hvcurveto
          56 hlineto
          71 -20 -69 20 -69 hhcurveto
          -117 -68 -87 -108 -104 74 -88 115 64 50 27 25 33 hvcurveto
          -25 31 rlineto
          -29 -35 -29 -17 -41 hhcurveto
          endchar
        </CharString>
        <CharString name="currency">
          107 48 61 -45 -21 548 60 7 -20 hstemhm
          66 61 478 62 hintmask 10011100
          629 658 rmoveto
          -72 -74 rlineto
          hintmask 10101100
          44 -56 -62 23 -74 hhcurveto
          -73 -60 -23 -45 -55 hvcurveto
          hintmask 01011100
          -75 75 -42 -45 73 -72 rlineto
          -46 -57 -21 -60 -73 vvcurveto
          -76 21 -60 46 -56 vhcurveto
          -73 -72 42 -44 76 72 rlineto
          hintmask 10011100
          -50 62 65 -17 60 hhcurveto
          46 73 10 57 73 hvcurveto
          72 -71 44 43 -72 72 rlineto
          44 56 22 60 75 vvcurveto
          74 -22 60 -44 57 vhcurveto
          72 72 rlineto
          -477 -432 rmoveto
          -36 36 -33 55 79 vvcurveto
          hintmask 10101100
          159 134 81 104 105 135 -81 -160 -158 -135 -83 -105 -65 -60 29 43 -44 vhcurveto
          endchar
        </CharString>
        <CharString name="d">
          -22 0 callgsubr
          67 callsubr
          hintmask 10011100
          52 callsubr
          hintmask 10101100
          -41 callsubr
          hintmask 01011100
          -12 callgsubr
          endchar
        </CharString>
        <CharString name="dagger">
          -77 45 callgsubr
          601 88 231 73 callsubr
          601 101 callsubr
          231 -88 -231 98 callsubr
        </CharString>
        <CharString name="daggerdbl">
          -77 45 callgsubr
          230 88 284 88 230 73 callsubr
          230 101 callsubr
          284 101 callsubr
          230 -88 -230 -190 -88 190 -284 98 callsubr
        </CharString>
        <CharString name="dcaron">
          118 0 callgsubr
          -238 61 callsubr
          67 callsubr
          hintmask 10010011
          52 callsubr
          hintmask 10100111
          -41 callsubr
          hintmask 01010011
          -12 callgsubr
          hintmask 10001111
          225 412 38 callgsubr
        </CharString>
        <CharString name="dcroat">
          -22 0 callgsubr
          -126 41 67 callsubr
          hintmask 10010110
          524 -67 callsubr
          -85 hlineto
          hintmask 10101110
          -85 -149 -41 149 -156 -4 vlineto
          -41 callsubr
          hintmask 01101110
          -81 85 574 79 41 -79 vlineto
          hintmask 10010110
          -85 -415 -23 callgsubr
          endchar
        </CharString>
        <CharString name="degree">
          -251 462 45 146 44 hstem
          70 44 147 44 vstem
          70 579 rmoveto
          -64 52 -53 66 65 52 53 64 66 -52 52 -65 -66 -52 -52 -66 vhcurveto
          44 hmoveto
          41 34 33 40 50 23 -44 -30 -38 -35 -34 -38 -29 -45 22 50 vhcurveto
          endchar
        </CharString>
        <CharString name="dieresis">
          -380 604 73 callgsubr
          0 5 callgsubr
          vstem
          658 vmoveto
          -106 callsubr
        </CharString>
        <CharString name="divide">
          302 25 108 105 61 104 73 callgsubr
          411 108 vstem
          120 238 rmoveto
          688 61 -688 hlineto
          291 -220 rmoveto
          -107 callgsubr
          378 vmoveto
          -107 callsubr
        </CharString>
        <CharString name="dollar">
          -1 -104 -21 115 43 -43 187 620 -20 hstemhm
          65 73 130 73 132 84 hintmask 11011110
          268 797 rmoveto
          -86 vlineto
          -112 -9 -91 -63 -112 vvcurveto
          -118 101 -41 102 -37 vhcurveto
          -298 vlineto
          hintmask 10111110
          -140 11 -20 91 -3 42 rrcurveto
          -68 hlineto
          4 -105 94 -72 133 -10 rrcurveto
          -115 73 115 vlineto
          132 11 84 75 111 vvcurveto
          127 -109 48 -107 39 vhcurveto
          263 vlineto
          65 -10 48 -35 9 -65 rrcurveto
          68 hlineto
          -14 86 -79 55 -97 14 rrcurveto
          88 vlineto
          132 -640 rmoveto
          -74 -51 -40 -81 -9 vhcurveto
          270 vlineto
          73 -30 59 -38 -79 vvcurveto
          -335 395 rmoveto
          56 45 49 85 9 vhcurveto
          -238 vlineto
          -73 29 -57 32 63 vvcurveto
          endchar
        </CharString>
        <CharString name="dotaccent">
          -518 604 73 callgsubr
          0 108 vstem
          658 vmoveto
          -107 callsubr
        </CharString>
        <CharString name="dotlessi">
          -67 callgsubr
        </CharString>
        <CharString name="e">
          -44 callgsubr
        </CharString>
        <CharString name="eacute">
          -46 callgsubr
          -247 317 -97 callgsubr
        </CharString>
        <CharString name="ebreve">
          -27 callgsubr
          66 21 callgsubr
          50 94 -4 44 callsubr
          3 87 hintmask 1110010010000000
          -103 callgsubr
          hintmask 0000101100000000
          -297 444 18 callsubr
        </CharString>
        <CharString name="ecaron">
          -27 callgsubr
          48 85 callsubr
          94 293 87 hintmask 11100110
          -103 callgsubr
          -151 353 -90 callsubr
        </CharString>
        <CharString name="ecircumflex">
          -27 callgsubr
          47 13 callsubr
          -95 callsubr
          -151 360 -106 callgsubr
        </CharString>
        <CharString name="edieresis">
          63 callgsubr
          20 5 callgsubr
          27 87 hintmask 11101001
          -103 callgsubr
          hintmask 00010110
          -273 390 -105 callsubr
        </CharString>
        <CharString name="edotaccent">
          63 callgsubr
          89 108 96 87 hintmask 11101010
          -103 callgsubr
          hintmask 00010100
          -204 390 -104 callsubr
        </CharString>
        <CharString name="egrave">
          -46 callgsubr
          -136 444 rmoveto
          -111 16 callsubr
          -127 rlineto
          39 hlineto
          endchar
        </CharString>
        <CharString name="eight">
          -41 -11 44 321 35 279 104 callsubr
          97 -77 77 271 75 -75 97 hintmask 11110010
          218 372 rmoveto
          -99 -5 -59 -92 -82 vvcurveto
          -99 74 -105 157 157 77 105 99 82 -60 92 -99 5 vhcurveto
          5 vlineto
          91 11 46 80 68 vvcurveto
          75 -57 101 -155 -156 -55 -101 -75 -68 46 -80 92 -11 vhcurveto
          73 12 rmoveto
          -64 -64 46 92 112 78 29 50 50 81 -29 -112 -92 -64 -46 -67 hvcurveto
          -35 vmoveto
          84 53 -66 -85 -104 -53 -66 -84 hvcurveto
          hintmask 11101100
          -81 -53 66 104 85 53 66 81 hvcurveto
          endchar
        </CharString>
        <CharString name="ellipsis">
          -55 -11 73 callgsubr
          40 108 84 108 83 108 vstem
          232 43 rmoveto
          -107 callgsubr
          -192 hmoveto
          -107 callgsubr
          383 hmoveto
          -107 callsubr
        </CharString>
        <CharString name="emacron">
          -27 callgsubr
          73 40 hstemhm
          50 94 293 87 hintmask 11101100
          -103 callgsubr
          hintmask 00010000
          -307 315 -26 callsubr
        </CharString>
        <CharString name="emdash">
          482 230 63 hstem
          40 230 rmoveto
          1028 63 -1028 hlineto
          endchar
        </CharString>
        <CharString name="endash">
          302 230 63 hstem
          120 230 rmoveto
          688 63 -688 hlineto
          endchar
        </CharString>
        <CharString name="eogonek">
          -52 93 callgsubr
          140 40 200 40 208 34 hstem
          50 94 55 61 177 87 vstem
          524 -86 callgsubr
          -132 79 -130 171 -3 vhcurveto
          -29 -21 -91 callgsubr
          41 44 39 46 31 hvcurveto
          67 9 58 29 44 46 -32 32 rcurveline
          -94 callsubr
          endchar
        </CharString>
        <CharString name="equal">
          262 223 62 129 61 hstem
          100 223 rmoveto
          688 62 -688 hlineto
          190 vmoveto
          -61 688 61 vlineto
          endchar
        </CharString>
        <CharString name="eth">
          60 callgsubr
          284 534 rmoveto
          92 63 49 -34 36 -46 10 -65 rlinecurve
          23 callgsubr
          128 -22 130 -111 76 hvcurveto
          75 51 -20 27 -85 -59 -79 43 -97 10 -75 8 rlinecurve
          -7 -36 69 -10 75 -18 61 -32 rlinecurve
          -80 -55 rlineto
          37 -538 28 callgsubr
        </CharString>
        <CharString name="exclam">
          -278 -12 108 604 -20 hstemhm
          120 108 -96 79 hintmask 11010000
          hintmask 11100000
          120 42 rmoveto
          -107 callgsubr
          107 658 rmoveto
          -110 hlineto
          31 -566 rlineto
          47 hlineto
          endchar
        </CharString>
        <CharString name="exclamdown">
          -278 9 -21 604 73 callgsubr
          120 108 -96 79 vstem
          120 646 rmoveto
          -107 callgsubr
          75 -92 rmoveto
          -47 hlineto
          -31 -566 rlineto
          110 hlineto
          endchar
        </CharString>
        <CharString name="f">
          -263 48 callsubr
          178 34 81 callgsubr
          -6 callsubr
          endchar
        </CharString>
        <CharString name="five">
          -62 -11 44 -44 173 257 52 174 55 hstemhm
          30 73 301 100 hintmask 10111100
          235 645 rmoveto
          240 hlineto
          20 55 rlineto
          -303 hlineto
          -89 -311 rlineto
          hintmask 01111100
          29 57 49 1 27 hhcurveto
          111 57 -72 -105 -149 -86 -60 -77 -84 -51 57 72 -3 hvcurveto
          -73 hlineto
          -97 3 88 -76 122 hhcurveto
          144 117 95 164 136 -99 87 -127 -37 -27 -7 -15 -37 hvcurveto
          endchar
        </CharString>
        <CharString name="florin">
          -146 -248 35 660 35 194 34 hstem
          96 -95 rmoveto
          -57 -12 -22 -61 -47 hhcurveto
          -27 -9 21 29 -7 hvcurveto
          -56 -38 rlineto
          -39 22 32 -8 40 hhcurveto
          128 50 161 36 hvcurveto
          106 498 rlineto
          103 hlineto
          7 35 rlineto
          -102 hlineto
          21 102 rlineto
          30 6 16 62 43 hhcurveto
          28 10 -35 -27 5 hvcurveto
          54 49 rlineto
          31 -22 -25 16 -40 hhcurveto
          -65 -73 -47 -101 -23 hvcurveto
          -18 -80 rlineto
          -74 hlineto
          -7 -35 rlineto
          74 hlineto
          endchar
        </CharString>
        <CharString name="four">
          -79 21 -21 168 53 479 -20 hstem
          331 81 vstem
          412 -67 callsubr
          -37 hlineto
          -345 -532 rlineto
          301 -168 81 168 95 53 -95 hlineto
          -81 345 rmoveto
          -345 -223 vlineto
          endchar
        </CharString>
        <CharString name="fraction">
          25 callgsubr
        </CharString>
        <CharString name="g">
          7 callsubr
          hstemhm
          50 92 295 85 hintmask 11011100
          -88 callgsubr
          hintmask 11101100
          -90 callgsubr
          endchar
        </CharString>
        <CharString name="gbreve">
          7 callsubr
          96 21 callgsubr
          50 92 12 44 callsubr
          -11 85 hintmask 1101001001000000
          -88 callgsubr
          hintmask 1110001001000000
          -90 callgsubr
          hintmask 0000010110000000
          -283 425 18 callgsubr
        </CharString>
        <CharString name="gcircumflex">
          7 callsubr
          77 -21 176 -62 callsubr
          -137 341 -106 callgsubr
        </CharString>
        <CharString name="gdotaccent">
          7 callsubr
          124 70 callgsubr
          92 105 108 82 85 hintmask 11010101
          -88 callgsubr
          hintmask 11100101
          -90 callgsubr
          hintmask 00001010
          -190 371 -104 callsubr
        </CharString>
        <CharString name="germandbls">
          -39 -12 36 -36 104 -71 -21 394 39 235 44 hstemhm
          110 85 206 73 -35 87 hintmask 00111110
          110 hmoveto
          85 528 hlineto
          35 1 105 105 86 14 -76 -42 -54 -33 -63 -66 vhcurveto
          -29 -39 29 hlineto
          hintmask 10011101
          130 7 -120 -75 -71 -7 -104 -59 hvcurveto
          hintmask 01011101
          -14 -41 8 60 -8 hvcurveto
          -61 hlineto
          -42 3 35 -62 88 hhcurveto
          84 67 77 130 62 -13 135 -159 22 hvcurveto
          4 vlineto
          hintmask 00111110
          75 9 45 62 70 vvcurveto
          92 -66 61 -109 -38 -151 -8 -176 vhcurveto
          endchar
        </CharString>
        <CharString name="grave">
          -403 606 68 callsubr
          hstem
          127 712 rmoveto
          -111 16 callsubr
          -127 rlineto
          39 hlineto
          endchar
        </CharString>
        <CharString name="greater">
          155 77 -21 549 -20 hstem
          721 329 rmoveto
          -645 276 -16 -44 525 -232 -525 -229 16 -44 rlineto
          endchar
        </CharString>
        <CharString name="greaterequal">
          87 14 -21 608 -20 hstem
          612 365 rmoveto
          -488 236 -24 -58 373 -178 -373 -175 24 -59 rlineto
          489 96 rmoveto
          -26 59 -486 -235 26 -58 rlineto
          endchar
        </CharString>
        <CharString name="guillemotleft">
          -86 22 callgsubr
          74 198 rmoveto
          118 79 callsubr
          -122 -198 122 -198 rlineto
          68 hlineto
          endchar
        </CharString>
        <CharString name="guillemotright">
          -86 83 callsubr
          198 259 rmoveto
          -118 -198 rlineto
          69 hlineto
          119 198 -119 198 rlineto
          -69 hlineto
          310 -198 rmoveto
          -120 -198 rlineto
          69 hlineto
          121 198 -121 198 rlineto
          -69 hlineto
          endchar
        </CharString>
        <CharString name="guilsinglleft">
          -278 22 callgsubr
          endchar
        </CharString>
        <CharString name="guilsinglright">
          -278 83 callsubr
          80 61 rmoveto
          68 hlineto
          120 198 -120 79 callsubr
          117 -198 rlineto
          endchar
        </CharString>
        <CharString name="h">
          -57 47 callsubr
          45 callsubr
          239 85 hintmask 11011000
          80 -58 callgsubr
          85 289 vlineto
          -56 callsubr
          hlineto
          hintmask 10111000
          268 vlineto
          endchar
        </CharString>
        <CharString name="hbar">
          -57 47 callsubr
          -117 40 45 callsubr
          239 85 hintmask 11011100
          9 583 rmoveto
          71 -583 85 289 hlineto
          -56 callsubr
          151 157 40 -157 hlineto
          hintmask 10101100
          77 -85 vlineto
          hintmask 11011100
          -77 -71 vlineto
          endchar
        </CharString>
        <CharString name="hcircumflex">
          -57 47 callsubr
          51 15 callsubr
          80 85 239 85 hintmask 11011110
          80 -58 callgsubr
          85 289 vlineto
          -56 callsubr
          hlineto
          hintmask 10111110
          268 vlineto
          92 122 -106 callgsubr
        </CharString>
        <CharString name="hungarumlaut">
          -334 585 127 hstem
          585 vmoveto
          59 callgsubr
          -31 callgsubr
        </CharString>
        <CharString name="hyphen">
          -259 230 75 hstem
          60 305 rmoveto
          -75 247 75 vlineto
          endchar
        </CharString>
        <CharString name="i">
          -67 callgsubr
        </CharString>
        <CharString name="iacute">
          -318 -3 callsubr
          212 -4 callgsubr
          -140 85 -97 callgsubr
        </CharString>
        <CharString name="icircumflex">
          1 callgsubr
          232 -20 -4 callgsubr
          -43 -98 callsubr
        </CharString>
        <CharString name="idieresis">
          1 callgsubr
          124 89 callgsubr
          31 108 -27 85 -28 108 hintmask 11101000
          -49 callsubr
          hintmask 11110100
          -166 -101 callsubr
        </CharString>
        <CharString name="igrave">
          1 callgsubr
          232 -20 -4 callgsubr
          -29 -51 callsubr
        </CharString>
        <CharString name="imacron">
          1 callgsubr
          103 40 -4 callgsubr
          -199 83 -26 callsubr
        </CharString>
        <CharString name="infinity">
          205 135 60 148 62 hstem
          120 68 455 68 vstem
          415 310 rmoveto
          -59 56 rlineto
          28 -30 -27 11 -41 hhcurveto
          -102 -36 -77 -58 -61 36 -74 102 43 23 11 27 32 hvcurveto
          59 57 60 -57 rlineto
          -29 30 26 -9 42 hhcurveto
          101 37 74 61 58 -37 77 -101 -41 -29 -11 -28 -28 hvcurveto
          -11 -96 rmoveto
          56 51 rlineto
          12 13 12 10 29 hhcurveto
          47 22 -34 -39 -36 -22 -39 -47 -30 -9 13 16 -19 hvcurveto
          -149 46 rmoveto
          -52 -46 rlineto
          -16 -18 -11 -13 -29 hhcurveto
          -47 -22 39 36 39 22 34 47 26 11 -8 -11 13 hvcurveto
          3 -3 rlineto
          endchar
        </CharString>
        <CharString name="integral">
          -33 -250 24 -24 102 759 102 -25 25 hstemhm
          247 90 hintmask 10101000
          247 503 rmoveto
          -573 vlineto
          -54 -4 -102 -100 vhcurveto
          hintmask 01011000
          -61 19 78 -57 hhcurveto
          -22 -12 -20 -16 -37 52 -29 86 114 75 71 139 hvcurveto
          573 vlineto
          54 4 101 99 vhcurveto
          hintmask 10101000
          59 -14 -77 55 hhcurveto
          22 11 20 16 40 -59 26 -80 -134 -53 -96 -114 hvcurveto
          endchar
        </CharString>
        <CharString name="iogonek">
          -318 -188 38 171 21 callsubr
          -20 124 89 callgsubr
          30 61 9 97 -85 85 hintmask 11111010
          112 -13 callgsubr
          33 vlineto
          -43 -31 -91 callgsubr
          44 52 42 50 32 hvcurveto
          4 500 hlineto
          hintmask 11111100
          -97 -80 callsubr
        </CharString>
        <CharString name="itilde">
          1 callgsubr
          104 69 -20 20 103 callsubr
          112 85 hintmask 11010100
          -49 callsubr
          -202 89 rmoveto
          25 14 26 19 23 hhcurveto
          hintmask 11100100
          56 69 -49 46 hhcurveto
          49 38 32 68 24 -47 callsubr
          hintmask 11001100
          -55 -75 47 -36 hhcurveto
          -56 -40 -42 -54 -18 hvcurveto
          endchar
        </CharString>
        <CharString name="j">
          -48 callsubr
        </CharString>
        <CharString name="jcircumflex">
          -335 -250 38 712 -20 232 -20 hstem
          113 86 vstem
          -36 callsubr
          -42 104 rmoveto
          7 8 1 3 6 hvcurveto
          44 -27 72 -45 0 vvcurveto
          25 31 rlineto
          0 -68 66 -44 43 vhcurveto
          -6 15 -13 13 -16 5 rrcurveto
          1 -2 2 0 vhcurveto
          -9 hlineto
          -4 hlineto
          -37 hlineto
          -83 callgsubr
          1 -1 87 54 41 25 rlinecurve
          -7 9 11 -4 13 hhcurveto
          endchar
        </CharString>
        <CharString name="k">
          -90 -9 callgsubr
          220 75 callsubr
          700 rmoveto
          -85 -700 -22 callgsubr
          endchar
        </CharString>
        <CharString name="kgreenlandic">
          -90 21 -21 500 75 callsubr
          -13 callsubr
          -85 -500 -22 callgsubr
          endchar
        </CharString>
        <CharString name="l">
          -341 21 -21 700 62 callsubr
          endchar
        </CharString>
        <CharString name="lacute">
          -341 -43 callgsubr
          119 -21 127 62 callsubr
          -94 778 -97 callgsubr
        </CharString>
        <CharString name="lcaron">
          -209 21 -21 463 -21 258 62 callsubr
          155 700 38 callgsubr
        </CharString>
        <CharString name="ldot">
          -113 21 -21 316 108 276 -20 hstemhm
          100 85 28 108 hintmask 10110000
          30 callgsubr
          hintmask 01001000
          28 370 -104 callsubr
        </CharString>
        <CharString name="less">
          156 77 -21 549 -20 hstem
          60 329 rmoveto
          646 -273 16 44 -525 229 525 232 -16 44 rlineto
          endchar
        </CharString>
        <CharString name="lessequal">
          87 14 -21 608 -20 hstem
          101 365 rmoveto
          486 -234 26 59 -374 175 374 178 -26 58 rlineto
          -487 -374 rmoveto
          487 -234 25 58 -488 235 rlineto
          endchar
        </CharString>
        <CharString name="logicalnot">
          302 125 168 -63 63 hstemhm
          745 63 hintmask 01100000
          120 230 rmoveto
          625 hlineto
          hintmask 10100000
          -105 63 168 -688 vlineto
          endchar
        </CharString>
        <CharString name="lozenge">
          -190 66 callsubr
          386 349 rmoveto
          -163 363 -173 -363 163 -361 rlineto
          107 361 rmoveto
          -107 -221 -97 221 105 223 rlineto
          endchar
        </CharString>
        <CharString name="lslash">
          -305 -43 callgsubr
          81 callgsubr
          201 -67 callsubr
          -84 -382 hlineto
          -97 -66 20 -29 77 52 rlineto
          -275 85 333 vlineto
          99 67 -21 30 -79 -54 rlineto
          endchar
        </CharString>
        <CharString name="m">
          233 26 callsubr
          45 callsubr
          222 85 222 85 cntrmask 00011100
          hintmask 11011100
          -32 callsubr
          hintmask 10111100
          81 -85 -500 vlineto
          endchar
        </CharString>
        <CharString name="macron">
          -263 583 40 hstem
          25 583 -26 callsubr
        </CharString>
        <CharString name="mu">
          -58 callsubr
        </CharString>
        <CharString name="multiply">
          -10 147 -21 455 -20 hstem
          495 579 rmoveto
          -187 -187 -189 189 -39 -39 188 -189 -188 -189 39 -38 189 188 188 -188 40 38 -190 189 189 188 rlineto
          endchar
        </CharString>
        <CharString name="n">
          -45 21 -21 460 51 -11 43 callsubr
          hintmask 11011000
          -34 callgsubr
          hintmask 10111000
          26 callgsubr
          vlineto
          hintmask 11011000
          -20 callsubr
          endchar
        </CharString>
        <CharString name="nacute">
          -45 26 callsubr
          126 -21 127 43 callsubr
          hintmask 11011110
          -34 callgsubr
          hintmask 10111110
          26 callgsubr
          vlineto
          hintmask 11011110
          -20 callsubr
          -220 585 -97 callgsubr
        </CharString>
        <CharString name="napostrophe">
          -45 26 callsubr
          31 201 45 callsubr
          248 85 hintmask 10111100
          291 97 callgsubr
          267 -712 rmoveto
          -40 callgsubr
          26 callgsubr
          hlineto
          hintmask 11001100
          -20 callsubr
          endchar
        </CharString>
        <CharString name="ncaron">
          -45 26 callsubr
          78 -21 176 -20 -21 callsubr
          -123 621 -90 callsubr
        </CharString>
        <CharString name="nine">
          -41 -11 44 -44 118 136 43 382 104 callsubr
          93 277 95 hintmask 01111100
          95 107 rmoveto
          -83 11 79 -35 87 hhcurveto
          184 69 178 182 169 -38 194 -198 -135 -94 -111 -131 -159 115 -68 91 63 74 21 61 24 hvcurveto
          9 23 27 callgsubr
          -187 -29 -128 -134 -51 -39 27 47 -8 vhcurveto
          hintmask 10111100
          251 370 rmoveto
          hintmask 01111100
          -139 -76 -52 -66 -60 -75 43 148 161 85 30 51 65 76 -55 -136 vhcurveto
          endchar
        </CharString>
        <CharString name="notequal">
          211 95 -21 128 55 127 55 142 -20 hstem
          120 439 rmoveto
          -55 292 vlineto
          -73 -127 rlineto
          -219 -55 188 hlineto
          -59 -102 45 -26 73 128 rlineto
          350 55 -317 hlineto
          73 -7 callsubr
          244 55 -213 hlineto
          67 115 -45 27 -81 -142 rlineto
          endchar
        </CharString>
        <CharString name="ntilde">
          -45 26 callsubr
          104 69 -20 67 -21 callsubr
          hintmask 00001000
          -282 589 -71 callsubr
        </CharString>
        <CharString name="numbersign">
          240 -1 -21 201 61 160 61 204 -20 21 -20 hstemhm
          hintmask 11101000
          119 461 rmoveto
          -15 -61 rlineto
          204 hlineto
          -31 -160 rlineto
          -204 hlineto
          -13 -61 rlineto
          202 hlineto
          -43 -201 rlineto
          62 hlineto
          43 201 rlineto
          159 hlineto
          -43 -201 rlineto
          60 hlineto
          45 201 rlineto
          201 hlineto
          14 61 rlineto
          -202 hlineto
          33 160 rlineto
          202 hlineto
          13 61 rlineto
          -202 hlineto
          43 205 rlineto
          -60 hlineto
          -44 -205 rlineto
          -159 hlineto
          44 204 rlineto
          -63 hlineto
          -43 -204 rlineto
          48 -61 rmoveto
          161 hlineto
          hintmask 11110000
          -34 -160 rlineto
          -159 hlineto
          endchar
        </CharString>
        <CharString name="o">
          -37 callgsubr
        </CharString>
        <CharString name="oacute">
          8 callsubr
          95 68 callsubr
          -76 callsubr
          -261 336 -97 callgsubr
        </CharString>
        <CharString name="obreve">
          8 callsubr
          65 21 callgsubr
          50 95 17 44 callsubr
          17 95 hintmask 11001001
          -96 callsubr
          hintmask 00010110
          -311 463 -20 callgsubr
        </CharString>
        <CharString name="ocircumflex">
          8 callsubr
          46 -21 176 -28 callsubr
          -165 379 -106 callgsubr
        </CharString>
        <CharString name="odieresis">
          8 callsubr
          93 70 callgsubr
          95 41 5 callgsubr
          41 95 hintmask 11010010
          -96 callsubr
          hintmask 00101100
          -287 409 -105 callsubr
        </CharString>
        <CharString name="oe">
          348 -12 35 217 35 203 35 hstem
          40 95 324 96 283 91 vstem
          555 275 rmoveto
          12 vlineto
          105 60 86 82 80 61 -77 -126 vhcurveto
          -379 -24 rmoveto
          -186 -93 -42 -71 -74 -86 42 186 186 86 41 74 71 93 -41 -186 vhcurveto
          96 -11 rmoveto
          374 19 hlineto
          176 -110 78 -119 -66 -85 -29 -72 -45 vhcurveto
          46 -42 -63 55 -105 hhcurveto
          -160 -94 -122 -140 -140 94 -123 160 92 73 40 66 47 hvcurveto
          -70 47 81 -36 87 hhcurveto
          78 83 33 60 52 hvcurveto
          -28 30 rlineto
          -53 -52 -45 -29 -68 hhcurveto
          -131 -55 106 92 hvcurveto
          endchar
        </CharString>
        <CharString name="ogonek">
          -460 93 callgsubr
          152 -20 hstem
          0 61 vstem
          118 hmoveto
          -87 callgsubr
          endchar
        </CharString>
        <CharString name="ograve">
          8 callsubr
          95 -21 127 -28 callsubr
          -150 463 rmoveto
          -111 16 callsubr
          -127 rlineto
          39 hlineto
          endchar
        </CharString>
        <CharString name="ohungarumlaut">
          8 callsubr
          74 127 hstemhm
          39 callgsubr
          hintmask 11011000
          -82 callgsubr
          -310 336 -10 callsubr
          hintmask 00100000
          -31 callgsubr
        </CharString>
        <CharString name="omacron">
          8 callsubr
          72 40 hstemhm
          39 callgsubr
          hintmask 11011000
          -96 callsubr
          hintmask 00100000
          -321 334 -26 callsubr
        </CharString>
        <CharString name="one">
          -307 -43 callgsubr
          hstem
          134 85 vstem
          219 -67 callsubr
          -48 hlineto
          -141 -146 27 -28 77 80 rlineto
          -606 85 vlineto
          endchar
        </CharString>
        <CharString name="ordfeminine">
          -145 357 36 162 37 86 33 hstem
          70 71 170 70 vstem
          311 449 rmoveto
          -35 -21 -33 -21 -35 hhcurveto
          -58 -23 37 39 38 15 48 67 40 27 -22 -36 21 hvcurveto
          70 53 rmoveto
          81 -1 80 -153 -34 -50 -5 -28 -47 vhcurveto
          30 -47 rlineto
          28 34 38 19 30 hhcurveto
          46 37 -25 -49 hvcurveto
          -60 vlineto
          28 -29 -31 20 -47 hhcurveto
          -91 -43 -61 -62 -51 36 -61 93 43 35 17 26 34 hvcurveto
          -35 70 vlineto
          endchar
        </CharString>
        <CharString name="ordmasculine">
          -147 358 32 289 32 hstem
          50 75 229 75 vstem
          125 535 rmoveto
          120 63 24 51 52 63 -24 -120 -121 -63 -24 -52 -51 -63 24 121 vhcurveto
          -75 hmoveto
          -109 87 -68 102 103 87 68 109 108 -87 68 -103 -102 -87 -68 -108 vhcurveto
          endchar
        </CharString>
        <CharString name="oslash">
          12 -12 35 453 35 1 -20 hstemhm
          60 95 328 95 hintmask 10111000
          425 512 rmoveto
          -10 -19 rlineto
          hintmask 11011000
          11 -30 -32 7 -36 hhcurveto
          -158 -99 -122 -140 -85 37 -78 64 -48 hvcurveto
          -28 -50 rlineto
          65 hlineto
          12 21 rlineto
          -13 31 36 -8 40 hhcurveto
          160 101 124 137 87 -41 82 -71 48 hvcurveto
          hintmask 10111000
          26 46 rlineto
          -9 -263 rmoveto
          -185 -93 -41 -72 -29 -31 6 18 -27 vhcurveto
          208 371 rlineto
          26 -34 18 -54 -81 vvcurveto
          -328 hmoveto
          hintmask 11011000
          186 90 41 73 24 27 -5 -14 25 vhcurveto
          -204 -366 rlineto
          -21 34 -14 51 73 vvcurveto
          endchar
        </CharString>
        <CharString name="otilde">
          8 callsubr
          73 76 callgsubr
          39 callgsubr
          hintmask 11001100
          -96 callsubr
          hintmask 00010000
          -323 340 -83 callsubr
        </CharString>
        <CharString name="p">
          -53 callsubr
        </CharString>
        <CharString name="paragraph">
          -85 -229 -21 950 -20 hstemhm
          30 230 131 70 vstemhm
          260 -250 rmoveto
          950 -85 vlineto
          -106 -39 -67 -65 -64 39 -68 106 hvcurveto
          hintmask 11110000
          16 -686 hlineto
          200 950 rmoveto
          -950 70 950 vlineto
          endchar
        </CharString>
        <CharString name="parenleft">
          90 callsubr
          99 88 vstem
          280 710 rmoveto
          -173 -75 -8 -282 -107 vvcurveto
          -104 8 -289 173 -72 vhcurveto
          27 vlineto
          -84 76 -9 128 234 vvcurveto
          234 9 125 84 76 vhcurveto
          endchar
        </CharString>
        <CharString name="parenright">
          90 callsubr
          113 88 vstem
          20 -219 rmoveto
          173 73 8 286 105 vvcurveto
          104 -8 289 -173 72 vhcurveto
          -27 vlineto
          83 -78 10 -125 -235 vvcurveto
          -233 -9 -126 -84 -76 vhcurveto
          endchar
        </CharString>
        <CharString name="partialdiff">
          60 callgsubr
          470 594 rmoveto
          -82 94 -141 13 -101 11 -7 -36 rcurveline
          142 -21 166 -50 24 -153 rrcurveto
          23 callgsubr
          116 -17 97 -73 83 hvcurveto
          -169 -571 28 callgsubr
        </CharString>
        <CharString name="percent">
          116 35 callsubr
          hintmask 0111111110000000
          34 callsubr
          56 20 68 61 vhcurveto
          hintmask 1011111110000000
          63 18 -68 -56 -96 -47 -32 -34 -33 -48 32 96 hvcurveto
          263 -408 rmoveto
          6 callsubr
          20 67 61 33 callsubr
          80 566 rmoveto
          80 callsubr
          59 66 callgsubr
          endchar
        </CharString>
        <CharString name="period">
          -358 -11 73 callgsubr
          80 108 vstem
          80 43 -104 callsubr
        </CharString>
        <CharString name="periodcentered">
          -398 316 73 callgsubr
          60 108 vstem
          60 370 -104 callsubr
        </CharString>
        <CharString name="perthousand">
          475 35 callsubr
          65 66 162 66 hintmask 1011111111100000
          34 callsubr
          57 20 67 61 63 18 -67 -57 -97 -47 -31 -34 -33 -48 31 97 vhcurveto
          263 -408 rmoveto
          11 callsubr
          80 566 rmoveto
          hintmask 0111111111100000
          80 callsubr
          59 66 callgsubr
          152 -566 rmoveto
          hintmask 1011111111100000
          11 callsubr
          endchar
        </CharString>
        <CharString name="pi">
          -67 17 -21 25 -21 447 36 hstemhm
          107 82 206 83 -83 133 hintmask 01111000
          107 hmoveto
          82 447 206 -368 hlineto
          hintmask 10111000
          -33 1 -50 92 vhcurveto
          hintmask 01110100
          16 13 1 3 11 hvcurveto
          51 vlineto
          -15 -1 rlineto
          hintmask 01111000
          -34 -2 -1 41 17 vvcurveto
          341 61 36 -428 vlineto
          -29 -23 -3 -16 -29 hvcurveto
          -37 vlineto
          11 17 29 9 18 hhcurveto
          13 hlineto
          endchar
        </CharString>
        <CharString name="plus">
          262 47 -21 324 44 318 -20 hstem
          414 61 vstem
          414 712 rmoveto
          -318 -314 -44 314 -324 61 324 313 44 -313 318 vlineto
          endchar
        </CharString>
        <CharString name="plusminus">
          202 116 56 204 55 178 -20 hstem
          386 56 vstem
          386 609 rmoveto
          -178 -266 -55 266 -158 56 158 266 55 -266 178 vlineto
          -322 -493 rmoveto
          588 56 -588 hlineto
          endchar
        </CharString>
        <CharString name="product">
          162 45 callgsubr
          864 56 3 callgsubr
          366 91 vstem
          668 -67 callsubr
          -548 -920 91 864 366 -864 91 hlineto
          endchar
        </CharString>
        <CharString name="q">
          42 callgsubr
          67 callsubr
          hintmask 11101100
          524 -13 callsubr
          hintmask 11011100
          -85 -81 -4 hlineto
          62 -25 -51 30 -80 hhcurveto
          hintmask 11101100
          -134 -95 -103 -159 -158 95 -103 134 64 65 25 69 27 hvcurveto
          4 -332 85 hlineto
          -85 463 rmoveto
          -109 -65 -64 -74 -83 -72 59 152 150 71 59 84 78 61 -71 -89 vhcurveto
          endchar
        </CharString>
        <CharString name="question">
          -107 -12 108 68 41 382 125 -36 36 hstemhm
          100 70 -18 58 -13 108 47 67 hintmask 11100101
          324 257 rmoveto
          -26 -21 -25 -26 -31 hhcurveto
          -16 -21 17 26 hvcurveto
          109 209 75 141 vvcurveto
          67 -34 72 -131 vhcurveto
          hintmask 11101011
          -102 -50 -55 -70 -2 hvcurveto
          70 6 hlineto
          hintmask 11010101
          49 45 34 45 44 48 -33 -47 -123 -192 -52 -8 -134 vhcurveto
          -10 vlineto
          -61 36 -52 77 33 44 23 37 30 vhcurveto
          hintmask 11101011
          -175 -182 -104 callsubr
        </CharString>
        <CharString name="questiondown">
          -107 -12 36 -36 125 382 41 68 89 callgsubr
          100 67 47 108 -13 58 -18 70 hintmask 01111010
          195 443 rmoveto
          26 21 25 26 31 hhcurveto
          16 21 -17 -26 hvcurveto
          -109 -209 -75 -141 vvcurveto
          -67 34 -72 131 vhcurveto
          hintmask 01111101
          102 50 55 70 2 hvcurveto
          -70 -6 hlineto
          hintmask 10111010
          -49 -45 -34 -45 -44 -48 33 47 122 192 53 8 134 vhcurveto
          10 vlineto
          61 -36 52 -77 -33 -44 -23 -37 -30 vhcurveto
          hintmask 10111101
          175 182 rmoveto
          29 -25 25 -29 -29 -25 -25 -29 -29 25 -25 29 29 25 25 29 vhcurveto
          endchar
        </CharString>
        <CharString name="quotedbl">
          -281 516 231 hstem
          131 747 rmoveto
          -101 hlineto
          31 -231 rlineto
          41 hlineto
          213 231 rmoveto
          -100 hlineto
          31 -231 rlineto
          38 hlineto
          endchar
        </CharString>
        <CharString name="quotedblbase">
          -247 -115 49 callgsubr
          135 122 51 callsubr
        </CharString>
        <CharString name="quotedblleft">
          92 callsubr
          254 442 rmoveto
          95 258 -36 hlineto
          -263 -258 rmoveto
          95 258 -35 hlineto
          endchar
        </CharString>
        <CharString name="quotedblright">
          92 callsubr
          145 700 51 callsubr
        </CharString>
        <CharString name="quoteleft">
          -431 481 49 callgsubr
          50 77 callsubr
          95 258 -35 hlineto
          endchar
        </CharString>
        <CharString name="quoteright">
          -431 481 49 callgsubr
          145 718 38 callgsubr
        </CharString>
        <CharString name="quotesinglbase">
          -452 -114 49 callgsubr
          134 123 rmoveto
          -94 -258 34 hlineto
          endchar
        </CharString>
        <CharString name="quotesingle">
          -466 537 -21 231 -20 hstem
          130 747 rmoveto
          -100 hlineto
          30 -231 rlineto
          42 hlineto
          endchar
        </CharString>
        <CharString name="r">
          61 callgsubr
          45 callsubr
          hintmask 10110000
          30 callsubr
          hintmask 11010000
          -45 callgsubr
          hintmask 10110000
          80 vlineto
          endchar
        </CharString>
        <CharString name="racute">
          61 callgsubr
          126 68 callsubr
          45 callsubr
          hintmask 10111100
          30 callsubr
          hintmask 11011100
          -45 callgsubr
          hintmask 10111100
          80 vlineto
          -71 85 -97 callgsubr
        </CharString>
        <CharString name="radical">
          10 21 -21 848 52 hstem
          259 106 rmoveto
          -103 356 rlineto
          -86 -48 40 78 callgsubr
          -414 rlineto
          65 hlineto
          144 848 rlineto
          124 52 -175 hlineto
          endchar
        </CharString>
        <CharString name="rcaron">
          61 callgsubr
          78 15 callsubr
          80 85 hintmask 10100100
          30 callsubr
          hintmask 11000100
          -45 callgsubr
          hintmask 10100100
          80 vlineto
          25 121 -90 callsubr
        </CharString>
        <CharString name="registered">
          236 -12 65 92 39 -39 208 148 34 110 65 hstemhm
          70 65 164 64 124 67 173 65 hintmask 1011111110000000
          363 501 rmoveto
          45 hlineto
          45 34 -36 -38 -55 -46 -19 -32 hvcurveto
          -46 hlineto
          -64 -202 rmoveto
          64 164 43 hlineto
          11 54 -92 -18 13 hvcurveto
          -33 23 15 -27 50 hhcurveto
          21 9 2 8 12 hvcurveto
          32 vlineto
          hintmask 1101111110000000
          -2 -6 -6 -1 -6 hhcurveto
          -30 -13 21 11 -7 hvcurveto
          -78 110 rlineto
          62 15 24 54 36 vvcurveto
          25 -15 79 -113 vhcurveto
          -127 hlineto
          -164 -186 rmoveto
          162 134 134 162 162 134 -134 -162 35 callgsubr
          -163 199 199 162 163 50 callgsubr
          endchar
        </CharString>
        <CharString name="ring">
          -442 537 88 callgsubr
          hstem
          0 86 callsubr
          vstem
          33 629 -79 callgsubr
        </CharString>
        <CharString name="s">
          -57 callgsubr
        </CharString>
        <CharString name="sacute">
          0 callsubr
          95 -21 127 -50 callsubr
          -199 199 -97 callgsubr
        </CharString>
        <CharString name="scaron">
          0 callsubr
          47 -21 176 -20 40 callsubr
          hintmask 1010001001000000
          -76 callgsubr
          hintmask 0110010001000000
          -47 callgsubr
          hintmask 1010000110000000
          -44 callsubr
          -103 235 -101 callgsubr
          hintmask 0001100000000000
          -39 callsubr
        </CharString>
        <CharString name="scedilla">
          -72 callsubr
        </CharString>
        <CharString name="scircumflex">
          0 callsubr
          46 -21 176 -50 callsubr
          -103 242 -106 callgsubr
        </CharString>
        <CharString name="section">
          -64 -155 45 -45 116 634 117 -44 44 hstemhm
          80 70 -30 62 -39 70 122 68 -44 67 -16 72 hintmask 1001001010000000
          426 595 rmoveto
          5 vlineto
          65 -60 47 -77 -114 -32 -71 -43 -51 40 -42 36 -35 vhcurveto
          hintmask 1010100101000000
          -77 -47 -62 -55 -83 vvcurveto
          -80 78 -59 76 -69 vhcurveto
          12 -11 rlineto
          42 -39 47 -38 -42 vvcurveto
          -22 -11 -35 -64 vhcurveto
          hintmask 0110010101000000
          -29 -47 7 64 -2 hvcurveto
          -62 hlineto
          -77 1 77 -39 68 hhcurveto
          82 55 52 58 56 -32 48 -32 31 hvcurveto
          70 34 73 54 83 vvcurveto
          -1 98 -116 86 -47 40 -12 10 rcurveline
          hintmask 1001001010000000
          -55 45 -38 37 36 vvcurveto
          34 26 21 44 46 30 -29 -40 vhcurveto
          hintmask 1010100010000000
          -4 vlineto
          -6 -246 rmoveto
          hintmask 1010100101000000
          27 -27 30 -31 -34 vvcurveto
          -46 -23 -58 -72 -42 vhcurveto
          -113 100 rlineto
          -30 26 -22 54 24 vvcurveto
          52 39 45 53 39 vhcurveto
          endchar
        </CharString>
        <CharString name="semicolon">
          -398 -115 -21 539 73 callgsubr
          63 105 vstem
          157 96 callgsubr
          -36 593 -104 callsubr
        </CharString>
        <CharString name="seven">
          -95 21 -21 324 43 278 55 hstem
          501 -67 callsubr
          -471 -55 366 hlineto
          -113 -278 rlineto
          -111 -43 94 hlineto
          -131 -324 rlineto
          83 hlineto
          131 324 rlineto
          102 43 -85 hlineto
          endchar
        </CharString>
        <CharString name="six">
          -41 -11 44 382 45 134 118 -44 104 callsubr
          85 287 93 hintmask 11011100
          490 594 rmoveto
          83 -10 -80 35 -87 hhcurveto
          -184 -69 -178 -182 -170 38 -193 198 135 94 110 132 159 -111 70 -99 -83 -48 -39 -45 -23 hvcurveto
          -12 -23 16 callgsubr
          186 29 129 134 vhcurveto
          hintmask 11101100
          51 39 -28 -46 8 hvcurveto
          -251 -370 rmoveto
          139 76 52 66 60 75 -43 -148 -161 -86 -30 -50 -65 -76 55 136 vhcurveto
          endchar
        </CharString>
        <CharString name="slash">
          25 callgsubr
        </CharString>
        <CharString name="space">
          -276 endchar
        </CharString>
        <CharString name="sterling">
          142 -11 40 -40 80 33 48 200 44 141 177 -43 43 hstemhm
          66 57 118 99 -63 91 72 117 hintmask 1011011101000000
          574 394 rmoveto
          -216 hlineto
          -13 89 -5 39 31 vvcurveto
          57 22 59 60 32 13 -12 -9 vhcurveto
          -15 -27 0 -44 vvcurveto
          hintmask 1011101101000000
          -29 23 -25 36 38 20 34 46 60 -47 37 -64 -100 -105 -64 -126 -39 5 -52 6 -37 vhcurveto
          -156 -44 164 hlineto
          hintmask 1011101011000000
          15 -46 2 -52 -49 vvcurveto
          -22 -2 -18 -9 -24 vhcurveto
          6 -22 -30 5 -21 hhcurveto
          -71 -56 -33 -60 -61 68 -7 16 hvcurveto
          25 hlineto
          52 4 43 36 32 36 30 -16 rcurveline
          -38 71 48 -22 51 hhcurveto
          111 45 91 108 31 hvcurveto
          -47 12 rlineto
          hintmask 0111101011000000
          -70 -21 -36 -61 -80 hhcurveto
          -55 -54 28 21 -66 hvcurveto
          21 42 17 50 58 vvcurveto
          7 -1 26 -4 49 vhcurveto
          211 hlineto
          -327 -260 rmoveto
          hintmask 1011101101000000
          -51 -29 -34 -10 -19 hhcurveto
          -26 -16 15 15 17 10 26 53 14 20 -1 -11 27 hvcurveto
          endchar
        </CharString>
        <CharString name="summation">
          -1 -220 56 808 56 hstem
          31 -67 callsubr
          314 -455 -315 -465 rlineto
          565 56 -424 hlineto
          277 412 -276 396 rlineto
          423 56 hlineto
          endchar
        </CharString>
        <CharString name="t">
          -251 48 callgsubr
          154 -20 81 callgsubr
          -57 callsubr
          endchar
        </CharString>
        <CharString name="tbar">
          -251 0 40 310 42 68 40 154 -20 81 callgsubr
          31 350 rmoveto
          86 -198 hlineto
          -33 callsubr
          222 122 42 -122 68 19 callgsubr
          87 -68 -86 vlineto
          endchar
        </CharString>
        <CharString name="tcaron">
          -56 48 callgsubr
          -19 -21 194 -20 84 -20 81 callgsubr
          -8 callsubr
          403 258 38 callgsubr
        </CharString>
        <CharString name="thorn">
          17 callgsubr
          -51 240 -51 callgsubr
          281 -85 vlineto
          85 -400 rmoveto
          -18 callsubr
          endchar
        </CharString>
        <CharString name="three">
          -52 -10 43 -43 168 192 44 152 166 -44 44 hstemhm
          50 100 249 86 -72 101 hintmask 10110101
          241 350 rmoveto
          164 8 -105 -48 hvcurveto
          hintmask 01110101
          -111 -55 -53 -80 -76 -49 60 65 -3 vhcurveto
          -100 hlineto
          -91 100 -80 116 3 vhcurveto
          hintmask 10110110
          165 83 104 107 76 -55 81 -87 13 hvcurveto
          -11 2 rlineto
          7 vlineto
          11 4 rlineto
          75 32 38 40 69 vvcurveto
          99 -63 88 -145 -157 -47 -93 -73 -3 vhcurveto
          hintmask 10101110
          89 hlineto
          100 11 45 22 57 hhcurveto
          88 39 -67 -71 -118 -101 -18 -57 hvcurveto
          endchar
        </CharString>
        <CharString name="tilde">
          -254 584 76 callgsubr
          hintmask 01000000
          27 589 -63 callsubr
          hintmask 10000000
          -93 callsubr
          hintmask 01000000
          -65 callgsubr
        </CharString>
        <CharString name="trademark">
          272 365 -21 316 40 hstem
          185 64 154 40 338 67 vstem
          249 344 rmoveto
          316 124 40 -313 -40 125 -316 vlineto
          296 356 rmoveto
          -78 -356 40 292 hlineto
          150 -292 rlineto
          37 hlineto
          151 290 rlineto
          -290 67 356 -74 vlineto
          -147 -280 rlineto
          endchar
        </CharString>
        <CharString name="two">
          -82 0 72 439 201 -44 44 hstemhm
          405 99 hintmask 11010000
          514 72 rmoveto
          -311 hlineto
          130 139 rlineto
          123 134 48 42 130 vvcurveto
          hintmask 10110000
          105 -84 90 -145 -128 -97 -88 -113 vhcurveto
          100 hlineto
          83 8 26 74 91 hhcurveto
          76 54 -59 -92 -117 -95 -109 -67 -80 hvcurveto
          -189 -211 rlineto
          460 hlineto
          endchar
        </CharString>
        <CharString name="u">
          -17 callsubr
          45 callsubr
          248 85 hintmask 10111000
          76 callsubr
          -89 callgsubr
          hintmask 01111000
          -84 callsubr
          endchar
        </CharString>
        <CharString name="uacute">
          -36 callgsubr
          28 85 -97 callgsubr
        </CharString>
        <CharString name="ubreve">
          -17 callsubr
          96 21 callgsubr
          80 85 -22 44 callsubr
          -24 -14 callsubr
          hintmask 0000101100000000
          -22 212 18 callsubr
        </CharString>
        <CharString name="ucircumflex">
          -17 callsubr
          77 -21 176 -70 callgsubr
          125 -98 callsubr
        </CharString>
        <CharString name="udieresis">
          -17 callsubr
          124 108 45 callsubr
          2 5 callgsubr
          0 85 hintmask 10101001
          76 callsubr
          -89 callgsubr
          hintmask 01101001
          -84 callsubr
          hintmask 00010110
          2 -101 callsubr
        </CharString>
        <CharString name="ugrave">
          -36 callgsubr
          139 -51 callsubr
        </CharString>
        <CharString name="uhungarumlaut">
          -17 callsubr
          105 127 -18 callgsubr
          -21 85 -10 callsubr
          hintmask 00010000
          -31 callgsubr
        </CharString>
        <CharString name="umacron">
          -17 callsubr
          103 40 -18 callgsubr
          hintmask 00010000
          -31 83 -26 callsubr
        </CharString>
        <CharString name="underscore">
          133 -220 72 hstem
          30 -220 rmoveto
          699 72 -699 hlineto
          endchar
        </CharString>
        <CharString name="uni00AD">
          -259 236 64 hstem
          60 300 rmoveto
          -64 247 64 vlineto
          endchar
        </CharString>
        <CharString name="uni0122">
          191 15 callgsubr
          37 0 45 -12 -21 33 238 0 41 0 242 115 43 hstemhm
          60 100 511 85 hintmask 1101010111000000
          756 312 rmoveto
          -197 -41 112 -181 hlineto
          hintmask 1010001111000000
          -38 -59 -63 -19 -73 hhcurveto
          -209 -107 155 166 184 117 131 183 90 90 -58 -57 17 hvcurveto
          94 hlineto
          63 -26 -74 95 -208 hhcurveto
          -215 -168 -140 -210 -189 118 -185 258 109 73 25 28 53 hvcurveto
          hintmask 1101101111000000
          -41 86 vlineto
          -267 -49 -39 callgsubr
        </CharString>
        <CharString name="uni0123">
          -249 39 198 88 callsubr
          -11 -20 31 33 168 -20 89 callsubr
          292 85 hintmask 11011111
          -88 callgsubr
          hintmask 11100111
          -81 callgsubr
          -90 36 177 187 113 20 41 89 49 -82 -91 vhcurveto
          hintmask 11011111
          -205 257 rmoveto
          94 168 -34 hlineto
          endchar
        </CharString>
        <CharString name="uni0136">
          98 45 callgsubr
          241 -56 callgsubr
          328 -749 -39 callgsubr
        </CharString>
        <CharString name="uni0137">
          -90 45 callgsubr
          241 21 callsubr
          -20 220 75 callsubr
          700 rmoveto
          -85 -700 -22 callgsubr
          172 -301 -39 callgsubr
        </CharString>
        <CharString name="uni013B">
          15 callgsubr
          104 37 callgsubr
          hintmask 11011000
          hintmask 10111000
          19 callsubr
          hintmask 11011000
          282 -49 -39 callgsubr
        </CharString>
        <CharString name="uni013C">
          -341 15 callgsubr
          49 700 62 callsubr
          6 -49 -39 callgsubr
        </CharString>
        <CharString name="uni0145">
          224 45 callgsubr
          229 -21 33 -14 callgsubr
          32 -20 hstemhm
          120 46 518 46 hintmask 10110110
          684 -67 callsubr
          -535 -4 vlineto
          hintmask 10101110
          -19 callgsubr
          hintmask 11010110
          10 callsubr
          -240 -749 -39 callgsubr
        </CharString>
        <CharString name="uni0146">
          -45 45 callgsubr
          241 -21 460 51 -11 43 callsubr
          hintmask 11101100
          498 hmoveto
          -1 callsubr
          -4 hlineto
          -38 -49 -14 -45 -45 hvcurveto
          -16 -16 16 callgsubr
          hintmask 11011100
          26 callgsubr
          vlineto
          hintmask 11101100
          -20 callsubr
          -68 -49 -39 callgsubr
        </CharString>
        <CharString name="uni0156">
          82 45 callgsubr
          208 47 -14 -21 331 23 302 44 13 callgsubr
          267 96 hintmask 10111110
          56 callsubr
          91 309 44 vlineto
          78 46 -71 -111 71 hvcurveto
          12 -19 rlineto
          hintmask 11011110
          -70 44 31 -50 87 hhcurveto
          hintmask 10111110
          47 callgsubr
          hintmask 11011110
          -5 callsubr
          -12 25 -21 10 -66 callgsubr
          210 -403 -39 callgsubr
        </CharString>
        <CharString name="uni0157">
          -244 15 callgsubr
          49 452 59 -11 -20 45 callsubr
          hintmask 11011000
          30 callsubr
          hintmask 11101000
          -45 callgsubr
          hintmask 11011000
          80 vlineto
          9 -549 -39 callgsubr
        </CharString>
        <CharString name="uni0162">
          3 callsubr
        </CharString>
        <CharString name="uni0163">
          -49 callgsubr
        </CharString>
        <CharString name="uni01F4">
          -15 callgsubr
          94 -21 127 -54 callsubr
          -446 785 -97 callgsubr
        </CharString>
        <CharString name="uni01F5">
          7 callsubr
          126 -21 127 -62 callsubr
          -233 298 -97 callgsubr
        </CharString>
        <CharString name="uni0218">
          -74 callsubr
        </CharString>
        <CharString name="uni0219">
          -72 callsubr
        </CharString>
        <CharString name="uni021A">
          3 callsubr
        </CharString>
        <CharString name="uni021B">
          -49 callgsubr
        </CharString>
        <CharString name="uni02BC">
          -463 565 -21 168 -20 hstem
          83 97 callgsubr
          endchar
        </CharString>
        <CharString name="uni0394">
          6 callgsubr
        </CharString>
        <CharString name="uni03A9">
          -61 callgsubr
        </CharString>
        <CharString name="uni03BC">
          -58 callsubr
        </CharString>
        <CharString name="uni0401">
          0 55 295 44 78 callsubr
          104 108 3 callgsubr
          7 5 callgsubr
          vstem
          56 callsubr
          452 55 -361 295 310 44 95 callsubr
          -354 -101 callsubr
        </CharString>
        <CharString name="uni0402">
          199 -12 43 -10 -21 376 43 226 55 hstemhm
          282 91 324 88 hintmask 01111100
          20 -67 callsubr
          -55 262 -645 91 359 vlineto
          8 44 66 9 43 hhcurveto
          56 115 -15 -92 hvcurveto
          -102 vlineto
          hintmask 10111100
          -100 -53 -36 -51 -60 -34 41 29 -11 vhcurveto
          -63 -50 rlineto
          -49 49 50 -14 64 hhcurveto
          181 16 136 74 hvcurveto
          76 vlineto
          54 -32 91 -185 -52 -93 -8 -8 -50 vhcurveto
          242 267 55 vlineto
          endchar
        </CharString>
        <CharString name="uni0403">
          -49 80 callgsubr
          0 212 13 callgsubr
          hintmask 10110000
          56 callsubr
          91 645 336 vlineto
          hintmask 11010000
          55 vlineto
          -309 85 -97 callgsubr
        </CharString>
        <CharString name="uni0404">
          79 callgsubr
          30 100 vstem
          395 712 rmoveto
          -203 -162 -125 -226 -156 108 -217 263 119 124 42 96 67 hvcurveto
          -51 49 rlineto
          -79 -52 -82 -64 -118 hhcurveto
          -175 -103 151 161 hvcurveto
          5 333 45 -333 4 vlineto
          128 91 142 183 118 86 -64 -79 52 vhcurveto
          51 49 rlineto
          96 -67 -119 42 -130 hhcurveto
          endchar
        </CharString>
        <CharString name="uni0405">
          -68 callgsubr
        </CharString>
        <CharString name="uni0406">
          -215 21 -21 700 -25 callgsubr
          endchar
        </CharString>
        <CharString name="uni0407">
          46 callgsubr
          hintmask 11101000
          -55 callsubr
          hintmask 11110100
          -169 -101 callsubr
        </CharString>
        <CharString name="uni0408">
          -94 64 callsubr
          hstemhm
          20 87 214 91 hintmask 10111000
          321 -67 callsubr
          -505 vlineto
          -63 -1 -100 -100 vhcurveto
          hintmask 01111000
          -91 -21 76 41 -1 hvcurveto
          -87 hlineto
          -98 3 59 -63 133 hhcurveto
          184 13 125 85 hvcurveto
          502 vlineto
          endchar
        </CharString>
        <CharString name="uni0409">
          409 0 44 -35 -21 362 94 callgsubr
          -20 hstemhm
          502 91 283 99 hintmask 01111100
          489 -67 callsubr
          -274 -527 rlineto
          -47 -25 -34 -47 -43 hhcurveto
          -15 -23 7 8 -16 hvcurveto
          -39 -97 rlineto
          -9 27 22 0 8 hhcurveto
          38 48 11 112 59 hvcurveto
          272 520 rlineto
          8 hlineto
          hintmask 10111100
          -631 223 vlineto
          180 70 101 103 96 -69 94 -175 hvcurveto
          -138 306 hlineto
          -656 vmoveto
          306 112 vlineto
          89 82 -56 -89 -75 -48 -86 -108 hvcurveto
          endchar
        </CharString>
        <CharString name="uni040A">
          492 41 callgsubr
          374 91 282 100 vstem
          211 350 rmoveto
          374 -350 222 33 callgsubr
          -137 306 -91 -306 -374 53 callsubr
          hlineto
          465 44 104 callgsubr
          112 52 callgsubr
          endchar
        </CharString>
        <CharString name="uni040B">
          224 21 -21 376 44 225 55 hstem
          282 91 326 91 vstem
          373 359 rmoveto
          10 51 53 7 41 hhcurveto
          177 4 -64 -60 hvcurveto
          -252 91 279 vlineto
          66 -19 75 -212 -62 -65 -9 -8 -59 vhcurveto
          242 274 55 -627 -55 262 -645 91 vlineto
          endchar
        </CharString>
        <CharString name="uni040C">
          98 -43 callgsubr
          232 -20 3 callgsubr
          vstem
          276 785 -96 callgsubr
          -239 -912 rmoveto
          -63 callgsubr
          endchar
        </CharString>
        <CharString name="uni040E">
          34 -12 79 633 -20 70 99 callsubr
          179 103 callgsubr
          hintmask 11011100
          137 -67 callsubr
          -107 hlineto
          313 -507 -36 -76 rlineto
          -27 -13 -15 -23 -43 hhcurveto
          -32 -28 24 23 -17 hvcurveto
          -42 -93 rlineto
          -16 18 40 -17 45 hhcurveto
          41 46 13 77 36 hvcurveto
          287 622 105 callgsubr
          -187 -406 16 callgsubr
          -36 456 -8 callgsubr
        </CharString>
        <CharString name="uni040F">
          215 41 callsubr
          165 91 163 91 hintmask 10111100
          376 -105 rmoveto
          91 hlineto
          hintmask 01111100
          105 254 700 -91 -645 -419 59 callsubr
          256 vlineto
          endchar
        </CharString>
        <CharString name="uni0410">
          -16 callgsubr
        </CharString>
        <CharString name="uni0411">
          45 0 42 308 44 78 callsubr
          3 callgsubr
          301 99 vstem
          211 645 rmoveto
          336 55 -427 -700 230 hlineto
          210 51 105 93 94 -53 102 -208 hvcurveto
          -139 hlineto
          -352 vmoveto
          308 132 vlineto
          104 65 -67 -92 -96 -80 -53 -83 hvcurveto
          endchar
        </CharString>
        <CharString name="uni0412">
          15 -66 callsubr
        </CharString>
        <CharString name="uni0413">
          -49 80 callgsubr
          hstem
          120 91 vstem
          56 callsubr
          91 645 336 55 vlineto
          endchar
        </CharString>
        <CharString name="uni0414">
          215 -105 152 -47 47 653 -20 hstemhm
          30 86 610 85 hintmask 10111000
          436 -67 callsubr
          -61 hlineto
          -251 -653 rlineto
          -94 -152 86 hlineto
          hintmask 01111000
          105 610 vlineto
          hintmask 10111000
          -105 85 152 -98 vlineto
          -96 hmoveto
          -446 hlineto
          210 544 27 callgsubr
          endchar
        </CharString>
        <CharString name="uni0415">
          0 55 291 48 78 callsubr
          hstem
          120 91 vstem
          56 callsubr
          452 55 -361 291 310 48 95 callsubr
          endchar
        </CharString>
        <CharString name="uni0416">
          572 -12 51 -18 -14 callgsubr
          hstemhm
          556 86 hintmask 10110000
          1140 39 rmoveto
          -52 -29 17 61 -39 hvcurveto
          -205 314 259 269 rlineto
          -65 hlineto
          -367 -380 rlineto
          380 -86 -380 vlineto
          -367 380 rlineto
          -65 hlineto
          259 -269 -205 -314 rlineto
          -61 -40 -29 -17 -51 hhcurveto
          -28 2 rlineto
          -40 vlineto
          -9 28 28 -4 28 hhcurveto
          39 36 6 46 36 hvcurveto
          215 332 116 -119 rlineto
          hintmask 01110000
          -253 86 253 vlineto
          116 119 215 -332 rlineto
          hintmask 10110000
          -46 36 36 -6 39 hhcurveto
          28 28 4 9 28 hvcurveto
          40 vlineto
          endchar
        </CharString>
        <CharString name="uni0417">
          38 -12 44 -44 189 173 23 -23 44 149 169 -44 104 callsubr
          94 -68 68 317 91 -58 100 hintmask 1001011010000000
          316 668 rmoveto
          101 54 -56 -76 -39 -14 -103 -154 hvcurveto
          -70 -44 70 hlineto
          hintmask 1010101001000000
          120 81 -56 -94 -64 -38 -104 -148 hvcurveto
          hintmask 0110101001000000
          -144 -17 100 45 -3 hvcurveto
          -94 hlineto
          -125 4 79 -64 168 hhcurveto
          222 71 112 96 107 -89 70 -89 hvcurveto
          -7 4 hlineto
          hintmask 1010100110000000
          83 60 79 81 85 -67 90 -176 -135 -94 -53 -116 -4 hvcurveto
          76 hlineto
          hintmask 1010011010000000
          48 2 33 77 119 hhcurveto
          endchar
        </CharString>
        <CharString name="uni0418">
          211 -43 callgsubr
          3 callgsubr
          415 91 vstem
          211 82 39 callsubr
        </CharString>
        <CharString name="uni0419">
          211 20 -21 751 99 callsubr
          120 91 30 103 callgsubr
          41 91 hintmask 10111110
          413 750 rmoveto
          4 callsubr
          hintmask 11011110
          36 callsubr
          hintmask 10111110
          4 callgsubr
          -202 -669 39 callsubr
        </CharString>
        <CharString name="uni041A">
          98 21 -56 callgsubr
          endchar
        </CharString>
        <CharString name="uni041B">
          164 -12 61 -28 -14 callgsubr
          hstemhm
          hintmask 10100000
          456 -67 callsubr
          -55 hlineto
          -216 -552 rlineto
          -60 -23 -14 -39 -44 hhcurveto
          -17 -17 12 7 -13 hvcurveto
          hintmask 01100000
          -27 -68 rlineto
          hintmask 10100000
          -8 22 28 -4 26 hhcurveto
          43 33 37 68 27 hvcurveto
          195 495 27 callgsubr
          hintmask 01100000
          253 -588 rlineto
          99 hlineto
          endchar
        </CharString>
        <CharString name="uni041C">
          -28 callgsubr
        </CharString>
        <CharString name="uni041D">
          -5 callgsubr
        </CharString>
        <CharString name="uni041E">
          -52 callsubr
        </CharString>
        <CharString name="uni041F">
          215 80 callgsubr
          3 callgsubr
          419 91 vstem
          721 -67 callsubr
          -601 -700 91 645 419 -645 91 hlineto
          endchar
        </CharString>
        <CharString name="uni0420">
          17 -35 callsubr
        </CharString>
        <CharString name="uni0421">
          155 -12 20 callgsubr
          hstemhm
          62 98 hintmask 10110000
          721 -75 callgsubr
          hintmask 11010000
          -89 callsubr
          endchar
        </CharString>
        <CharString name="uni0422">
          41 21 -21 -32 callgsubr
          endchar
        </CharString>
        <CharString name="uni0423">
          34 -12 79 633 -20 hstem
          137 -67 callsubr
          -107 hlineto
          313 -507 -36 -76 rlineto
          -27 -13 -15 -23 -43 hhcurveto
          -32 -28 24 23 -17 hvcurveto
          -42 -93 rlineto
          -16 18 40 -17 45 hhcurveto
          41 46 13 77 36 hvcurveto
          287 622 105 callgsubr
          -187 -406 16 callgsubr
          endchar
        </CharString>
        <CharString name="uni0424">
          246 21 -21 87 40 453 42 78 -20 hstem
          60 96 234 91 235 96 vstem
          390 -67 callsubr
          -78 -34 vlineto
          -192 -104 -134 -135 -104 75 -162 242 hvcurveto
          13 -87 91 87 14 hlineto
          242 75 162 104 135 -104 134 -192 hvcurveto
          -35 78 hlineto
          -91 -573 rmoveto
          -6 hlineto
          -137 -91 99 127 108 63 119 158 hvcurveto
          13 hlineto
          91 -453 rmoveto
          453 14 vlineto
          158 63 -119 -108 -127 -91 -99 -137 hvcurveto
          endchar
        </CharString>
        <CharString name="uni0425">
          73 -43 callgsubr
          hstem
          132 -67 callsubr
          -112 hlineto
          273 -351 -268 -349 rlineto
          54 hlineto
          239 313 27 callgsubr
          244 -313 rlineto
          113 hlineto
          -303 387 239 313 rlineto
          -53 hlineto
          -211 -275 rlineto
          -5 hlineto
          endchar
        </CharString>
        <CharString name="uni0426">
          237 41 callsubr
          416 91 0 85 hintmask 10111000
          718 55 rmoveto
          100 callgsubr
          -416 645 -91 vlineto
          hintmask 01111000
          -700 598 vlineto
          hintmask 10110100
          -105 85 160 vlineto
          endchar
        </CharString>
        <CharString name="uni0427">
          82 21 -21 280 44 376 -20 hstem
          60 91 346 91 vstem
          497 341 rmoveto
          -10 -51 -73 -7 -41 hhcurveto
          -177 -4 64 60 hvcurveto
          252 -91 -279 vlineto
          -66 19 -75 212 62 85 9 8 59 vhcurveto
          -297 91 700 -91 vlineto
          endchar
        </CharString>
        <CharString name="uni0428">
          511 91 callsubr
          312 91 311 92 vstem
          925 -67 callsubr
          -645 -311 100 callgsubr
          -312 59 callsubr
          897 71 callgsubr
          endchar
        </CharString>
        <CharString name="uni0429">
          536 41 callsubr
          312 91 311 92 0 85 hintmask 10111010
          1017 -105 rmoveto
          85 160 -85 645 hlineto
          hintmask 10111100
          -92 -645 -311 100 callgsubr
          -312 645 -91 hlineto
          hintmask 01111100
          -700 897 vlineto
          endchar
        </CharString>
        <CharString name="uni042A">
          176 69 callgsubr
          44 175 131 -56 56 hstemhm
          30 85 139 91 298 99 hintmask 11101110
          254 hmoveto
          238 hlineto
          191 59 112 95 92 -68 95 -176 hvcurveto
          -153 306 -315 -131 85 hlineto
          hintmask 11011110
          75 139 vlineto
          91 -600 104 callgsubr
          128 vlineto
          99 71 -65 -89 -83 -63 -69 -93 hvcurveto
          endchar
        </CharString>
        <CharString name="uni042B">
          294 41 callgsubr
          298 100 100 91 -2 callgsubr
          356 656 rmoveto
          -700 91 71 callgsubr
          endchar
        </CharString>
        <CharString name="uni042C">
          43 41 callgsubr
          298 100 -2 callgsubr
          endchar
        </CharString>
        <CharString name="uni042D">
          79 callgsubr
          611 100 vstem
          346 712 rmoveto
          -130 -119 -42 -96 -67 hvcurveto
          51 -49 rlineto
          79 52 86 64 118 hhcurveto
          183 91 -142 -128 hvcurveto
          -4 -333 -45 333 -5 vlineto
          -161 -103 -151 -175 -118 -82 64 79 -52 vhcurveto
          -51 -49 rlineto
          -96 67 124 -42 119 hhcurveto
          263 108 217 156 226 -162 125 -203 hvcurveto
          endchar
        </CharString>
        <CharString name="uni042E">
          526 -12 44 -11 -21 350 44 274 44 -12 32 callgsubr
          123 99 559 100 hintmask 01101111
          211 394 rmoveto
          53 callsubr
          350 123 vlineto
          hintmask 10110111
          -255 5 197 -107 179 hhcurveto
          220 157 165 198 154 -113 207 -264 -213 -145 -146 -172 -23 hvcurveto
          381 274 rmoveto
          110 167 -83 -234 -233 -167 -86 -110 -112 -170 86 233 233 170 84 112 hvcurveto
          endchar
        </CharString>
        <CharString name="uni042F">
          14 callsubr
          hstemhm
          144 96 267 91 hintmask 10011110
          371 -67 callsubr
          -179 -48 -110 -73 hvcurveto
          hintmask 01101110
          -80 52 -98 129 -8 vhcurveto
          hintmask 10101110
          -4 vlineto
          -10 -5 -33 -16 0 -19 -111 -163 rlinecurve
          -55 -37 -29 -34 -55 hhcurveto
          -6 -8 1 1 -6 hvcurveto
          -37 vlineto
          -10 19 16 -2 29 hhcurveto
          80 30 44 60 41 hvcurveto
          79 117 rlineto
          74 47 17 26 75 hhcurveto
          44 -309 91 700 hlineto
          -91 -346 rmoveto
          -103 hlineto
          hintmask 01101110
          -107 -57 83 72 85 65 62 101 hvcurveto
          101 hlineto
          endchar
        </CharString>
        <CharString name="uni0430">
          -71 callgsubr
        </CharString>
        <CharString name="uni0431">
          -5 -12 40 443 40 115 74 hstemhm
          50 47 -47 95 331 95 hintmask 11110100
          405 -67 callsubr
          -114 -115 -2 -121 -72 hvcurveto
          -53 -89 -1 -111 -82 vvcurveto
          -27 vlineto
          -102 41 -178 230 179 71 138 127 128 -74 130 -175 -123 -68 -64 -68 -30 vhcurveto
          -4 5 hlineto
          83 32 80 48 37 vhcurveto
          41 55 61 1 74 hhcurveto
          123 hlineto
          54 74 rlineto
          hintmask 11101100
          -399 -453 rmoveto
          155 69 69 93 39 130 -3 -221 -184 -101 -35 -54 -70 -106 41 178 vhcurveto
          endchar
        </CharString>
        <CharString name="uni0432">
          -87 0 40 199 34 187 40 45 callsubr
          203 84 -55 55 -55 92 hintmask 11110010
          80 -13 callgsubr
          226 vlineto
          131 52 66 66 102 -92 26 -55 2 hvcurveto
          7 vlineto
          hintmask 11110100
          54 10 56 37 67 vvcurveto
          38 -18 79 -145 vhcurveto
          -124 -460 rmoveto
          199 88 vlineto
          42 102 -3 -100 -96 -101 0 -27 hvcurveto
          -104 233 rmoveto
          187 99 vlineto
          hintmask 11111000
          91 13 -60 -31 -60 -54 -36 -62 hvcurveto
          endchar
        </CharString>
        <CharString name="uni0433">
          -208 48 callsubr
          hstem
          80 85 vstem
          408 77 callsubr
          40 -328 62 callgsubr
          460 vlineto
          endchar
        </CharString>
        <CharString name="uni0434">
          -26 60 callsubr
          10 70 440 70 hintmask 10111000
          521 40 rmoveto
          -192 460 rlineto
          -60 hlineto
          -187 -460 rlineto
          -72 -145 70 hlineto
          hintmask 01111000
          105 440 vlineto
          hintmask 10111000
          -105 70 145 vlineto
          -314 361 rmoveto
          6 hlineto
          149 -361 rlineto
          -302 hlineto
          endchar
        </CharString>
        <CharString name="uni0435">
          -44 callgsubr
        </CharString>
        <CharString name="uni0436">
          219 -12 52 -19 21 callsubr
          -20 hstemhm
          380 85 hintmask 10110000
          137 -13 callsubr
          -61 hlineto
          197 -212 -126 -174 rlineto
          -34 -25 -43 -40 -31 hhcurveto
          -28 hlineto
          hintmask 01110000
          -40 vlineto
          hintmask 10110000
          -5 17 24 -7 24 hhcurveto
          53 40 41 42 30 hvcurveto
          118 163 54 -58 rlineto
          hintmask 01110000
          -176 85 176 vlineto
          54 58 118 -163 rlineto
          hintmask 10110000
          -42 30 40 -41 53 hhcurveto
          hintmask 01110000
          83 callgsubr
          hintmask 10110000
          40 -28 vlineto
          -31 -44 40 34 -24 hvcurveto
          -126 174 197 212 rlineto
          -61 hlineto
          -243 -258 rlineto
          258 -85 -258 vlineto
          endchar
        </CharString>
        <CharString name="uni0437">
          -110 -12 35 216 34 89 149 -40 40 hstemhm
          352 81 -61 94 hintmask 11011000
          235 471 rmoveto
          80 37 -41 -55 -72 -62 -30 -65 hvcurveto
          -34 -34 36 hlineto
          hintmask 11100100
          40 105 -5 -97 -70 -55 -44 -80 -72 -69 36 73 -19 hvcurveto
          -47 -39 rlineto
          -72 39 47 -33 117 hhcurveto
          182 51 80 62 63 -53 64 -95 1 hvcurveto
          7 vlineto
          hintmask 11101000
          111 11 4 86 17 vvcurveto
          57 -47 75 -137 -147 -44 -87 -62 -3 vhcurveto
          60 hlineto
          hintmask 11011000
          88 11 51 21 58 hhcurveto
          endchar
        </CharString>
        <CharString name="uni0438">
          -26 -9 callgsubr
          hstem
          80 85 270 85 vstem
          36 callgsubr
          endchar
        </CharString>
        <CharString name="uni0439">
          -26 -9 callgsubr
          110 99 callsubr
          80 85 -36 103 callgsubr
          -38 85 hintmask 11011001
          36 callgsubr
          -119 90 rmoveto
          hintmask 11011010
          4 callsubr
          hintmask 11100110
          36 callsubr
          hintmask 11010110
          4 callgsubr
          endchar
        </CharString>
        <CharString name="uni043A">
          -74 -12 52 -19 86 callgsubr
          85 hintmask 01110000
          165 242 rmoveto
          258 49 callsubr
          176 vlineto
          55 58 124 -163 rlineto
          hintmask 10110000
          -41 31 39 -42 53 hhcurveto
          hintmask 01110000
          83 callgsubr
          hintmask 10110000
          40 callgsubr
        </CharString>
        <CharString name="uni043B">
          -36 -11 51 -19 21 callsubr
          -20 hstemhm
          hintmask 10100000
          367 -13 callsubr
          -60 hlineto
          -152 -377 rlineto
          -30 -12 -21 -53 -33 hhcurveto
          -18 -23 14 10 -12 hvcurveto
          -16 -53 rlineto
          -15 16 22 -7 27 hhcurveto
          51 25 27 96 38 hvcurveto
          115 289 rlineto
          6 hlineto
          hintmask 01100000
          160 -401 rlineto
          90 hlineto
          endchar
        </CharString>
        <CharString name="uni043C">
          54 9 -21 33 86 callgsubr
          34 401 85 hintmask 01111000
          159 -13 callsubr
          -79 -500 34 395 4 hlineto
          hintmask 10111000
          198 -407 rlineto
          10 hlineto
          185 407 27 callgsubr
          hintmask 01111000
          -395 85 500 -77 vlineto
          -174 -382 rlineto
          -5 hlineto
          endchar
        </CharString>
        <CharString name="uni043D">
          -43 21 -21 239 57 callgsubr
          253 87 callgsubr
          239 rmoveto
          253 -239 85 72 callsubr
          -227 -253 227 49 callsubr
          hlineto
          endchar
        </CharString>
        <CharString name="uni043E">
          -37 callgsubr
        </CharString>
        <CharString name="uni043F">
          -63 48 callsubr
          hstem
          80 85 233 87 callgsubr
          77 callsubr
          233 -460 85 500 -403 62 callgsubr
          hlineto
          endchar
        </CharString>
        <CharString name="uni0440">
          -53 callsubr
        </CharString>
        <CharString name="uni0441">
          -43 callsubr
        </CharString>
        <CharString name="uni0442">
          -101 48 callsubr
          hstem
          220 85 vstem
          220 hmoveto
          85 460 200 40 -485 -40 200 hlineto
          endchar
        </CharString>
        <CharString name="uni0443">
          -112 44 callgsubr
          hstem
          284 -99 callgsubr
          endchar
        </CharString>
        <CharString name="uni0444">
          237 -229 -21 238 39 444 40 -40 229 hstemhm
          50 88 251 85 251 88 cntrmask 00001110
          hintmask 11011110
          474 -67 callsubr
          -85 -263 -4 hlineto
          hintmask 11101110
          31 -10 -39 43 -85 hhcurveto
          -166 -35 -160 -102 -101 35 -160 166 85 39 43 31 10 hvcurveto
          4 -312 85 312 4 hlineto
          -44 16 48 -30 69 hhcurveto
          168 34 160 101 102 -34 160 -168 -69 -48 -30 -44 -16 hvcurveto
          -4 hlineto
          hintmask 11011110
          -188 vmoveto
          75 3 147 120 58 70 -42 -180 -179 -70 -43 -58 -120 -3 148 74 vhcurveto
          -85 hmoveto
          -75 -3 -147 -120 -47 -81 30 192 193 81 29 47 120 3 -146 -76 vhcurveto
          endchar
        </CharString>
        <CharString name="uni0445">
          -16 callsubr
        </CharString>
        <CharString name="uni0446">
          -39 0 40 460 -20 45 callsubr
          237 85 20 70 vstemhm
          165 40 rmoveto
          460 -85 -500 427 vlineto
          hintmask 11111000
          -105 70 145 -90 460 -85 -460 vlineto
          endchar
        </CharString>
        <CharString name="uni0447">
          -122 21 -21 188 42 270 -20 hstem
          50 85 204 85 vstem
          339 246 rmoveto
          -5 -22 -52 -11 -29 hhcurveto
          -100 -1 59 26 hvcurveto
          185 -85 -185 vlineto
          -33 0 -94 133 44 58 7 17 54 vhcurveto
          -212 85 72 callsubr
          vlineto
          endchar
        </CharString>
        <CharString name="uni0448">
          222 0 40 460 -20 hstem
          80 85 216 85 216 86 vstem
          80 hmoveto
          688 500 -86 56 callgsubr
          56 callgsubr
          hlineto
          endchar
        </CharString>
        <CharString name="uni0449">
          240 60 callsubr
          80 85 216 85 216 86 21 67 hintmask 01111110
          80 hmoveto
          709 hlineto
          hintmask 10111110
          -105 67 145 -88 460 -86 56 callgsubr
          56 callgsubr
          vlineto
          endchar
        </CharString>
        <CharString name="uni044A">
          21 0 38 201 34 121 105 -38 38 hstemhm
          10 73 104 86 232 92 hintmask 11101110
          187 hmoveto
          254 hlineto
          97 59 58 77 135 -142 3 -56 hvcurveto
          -126 226 -263 -105 73 hlineto
          hintmask 11011110
          67 104 vlineto
          86 -423 rmoveto
          201 113 vlineto
          44 75 -11 -85 -22 -2 -22 -11 -17 hvcurveto
          -15 -10 -26 -29 -54 hhcurveto
          endchar
        </CharString>
        <CharString name="uni044B">
          132 0 38 201 57 callgsubr
          231 92 105 85 27 callsubr
          428 hmoveto
          62 callgsubr
          500 vlineto
          -513 -462 rmoveto
          201 92 callgsubr
          -32 -52 hvcurveto
          endchar
        </CharString>
        <CharString name="uni044C">
          -88 0 40 199 57 callgsubr
          231 92 27 callsubr
          -460 vmoveto
          199 92 callgsubr
          -30 -52 hvcurveto
          endchar
        </CharString>
        <CharString name="uni044D">
          71 callsubr
          393 95 hintmask 11101000
          235 471 rmoveto
          67 89 -34 -164 2 hvcurveto
          -196 -36 196 hlineto
          -39 -9 -170 -151 -91 -46 61 43 -22 vhcurveto
          -44 -44 rlineto
          -77 60 68 -22 79 hhcurveto
          41 43 6 18 38 hvcurveto
          60 29 69 72 138 vvcurveto
          161 -94 98 -152 -132 -70 -73 -57 -3 vhcurveto
          74 hlineto
          hintmask 11011000
          77 9 73 13 42 hhcurveto
          endchar
        </CharString>
        <CharString name="uni044E">
          188 -12 40 -8 -21 240 34 198 40 45 callsubr
          83 95 327 94 hintmask 10111110
          248 239 rmoveto
          -118 8 91 -133 159 hhcurveto
          164 94 116 151 137 -99 119 -159 -142 -112 -90 -148 -4 hvcurveto
          -83 226 49 callsubr
          240 hlineto
          178 16 rmoveto
          212 109 4 55 vhcurveto
          hintmask 01111110
          73 90 -30 -185 -107 -34 -121 -129 -73 -91 40 187 hvcurveto
          endchar
        </CharString>
        <CharString name="uni044F">
          -89 -12 52 -19 -21 239 34 187 40 hstemhm
          65 91 216 85 hintmask 10111100
          457 -13 callsubr
          -200 hlineto
          -56 -136 -9 -127 -69 60 -56 81 hvcurveto
          23 -4 hlineto
          -42 -17 -14 -30 -27 -44 rrcurveto
          -72 -44 -26 -32 -42 hhcurveto
          -24 hlineto
          hintmask 01111100
          -40 vlineto
          hintmask 10111100
          -8 18 19 -4 23 hhcurveto
          49 35 26 52 31 hvcurveto
          101 173 rlineto
          86 hlineto
          hintmask 01111100
          -239 85 vlineto
          -85 77 callsubr
          -187 -82 vlineto
          -79 -55 21 72 94 93 0 19 hvcurveto
          endchar
        </CharString>
        <CharString name="uni0451">
          -47 -25 callsubr
          96 73 callgsubr
          43 94 15 5 callgsubr
          32 87 vstem
          517 -104 callgsubr
          -278 392 -105 callsubr
        </CharString>
        <CharString name="uni0452">
          -22 -250 36 235 -21 460 52 -52 240 -122 37 hstemhm
          113 85 240 86 hintmask 11010110
          113 -67 callsubr
          hintmask 11101110
          -85 -83 -37 83 -578 85 288 vlineto
          54 9 118 127 73 31 -46 -99 vhcurveto
          -406 vlineto
          -60 -8 -63 -54 -31 -16 15 36 -15 vhcurveto
          -49 -39 rlineto
          -38 31 38 -10 44 hhcurveto
          59 87 36 169 hvcurveto
          360 vlineto
          64 -12 133 -157 -47 -50 -18 -51 -47 vhcurveto
          -9 -10 rlineto
          -4 145 232 37 -232 hlineto
          hintmask 11010110
          85 vlineto
          endchar
        </CharString>
        <CharString name="uni0453">
          -208 48 callsubr
          0 212 45 callsubr
          hintmask 10110000
          408 77 callsubr
          40 -328 -500 vlineto
          hintmask 11010000
          85 460 hlineto
          -30 125 -97 callgsubr
        </CharString>
        <CharString name="uni0454">
          71 callsubr
          30 95 hintmask 11011000
          hintmask 11101000
          283 471 rmoveto
          42 73 -13 -77 9 hvcurveto
          74 hlineto
          57 -3 -70 73 -132 hhcurveto
          -152 -94 -98 -161 -138 69 -72 60 -29 hvcurveto
          -18 38 43 -6 41 hhcurveto
          79 68 22 77 60 hvcurveto
          -44 44 rlineto
          -43 -22 -46 -61 -91 hhcurveto
          -151 -9 170 39 hvcurveto
          196 36 hlineto
          hintmask 11011000
          -196 hlineto
          164 2 89 34 67 hhcurveto
          endchar
        </CharString>
        <CharString name="uni0455">
          -57 callgsubr
        </CharString>
        <CharString name="uni0456">
          -67 callgsubr
        </CharString>
        <CharString name="uni0457">
          1 callgsubr
          124 89 callgsubr
          31 108 -27 85 -28 108 hintmask 11101000
          -49 callsubr
          hintmask 11110100
          -166 -101 callsubr
        </CharString>
        <CharString name="uni0458">
          -48 callsubr
        </CharString>
        <CharString name="uni0459">
          171 -12 66 -54 39 200 34 227 -20 hstemhm
          368 85 209 85 hintmask 01111100
          453 39 rmoveto
          200 92 vlineto
          44 73 -20 -77 -35 -5 -25 -30 -25 hvcurveto
          -18 -28 -19 0 -29 hhcurveto
          -183 -39 rmoveto
          209 hlineto
          100 70 42 94 136 -132 1 -65 hvcurveto
          -97 227 -91 hlineto
          -201 -369 rlineto
          hintmask 10111100
          -47 -26 -32 -30 -31 hhcurveto
          -18 -21 10 11 -14 hvcurveto
          hintmask 01111100
          -9 -75 rlineto
          hintmask 10111100
          -4 19 14 -8 20 hhcurveto
          54 32 33 87 46 hvcurveto
          169 322 27 callgsubr
          endchar
        </CharString>
        <CharString name="uni045A">
          205 0 38 201 57 callgsubr
          237 85 209 85 vstem
          487 38 rmoveto
          201 92 vlineto
          26 91 -4 -92 -60 -35 -45 -75 hvcurveto
          -184 201 rmoveto
          -239 237 vlineto
          76 66 53 82 136 -131 2 -66 hvcurveto
          -97 227 -85 -227 -237 227 49 callsubr
          239 hlineto
          endchar
        </CharString>
        <CharString name="uni045B">
          47 callsubr
          -122 38 hstemhm
          113 85 239 85 hintmask 11011100
          30 578 rmoveto
          83 -578 85 289 hlineto
          -56 callsubr
          146 232 38 -232 hlineto
          hintmask 10101100
          84 -85 vlineto
          hintmask 11011100
          -84 -83 vlineto
          endchar
        </CharString>
        <CharString name="uni045C">
          -74 -12 52 -19 21 callsubr
          -20 232 -20 45 callsubr
          hintmask 10111000
          193 585 -96 callgsubr
          -111 -470 rmoveto
          258 vlineto
          hintmask 01111000
          -85 hlineto
          hintmask 10111000
          62 callgsubr
          176 vlineto
          55 58 rlineto
          hintmask 01111000
          124 -163 rlineto
          -41 31 39 -42 53 hhcurveto
          83 callgsubr
          40 callgsubr
        </CharString>
        <CharString name="uni045E">
          -112 44 callgsubr
          110 99 callsubr
          107 103 callgsubr
          hintmask 11011100
          284 -99 callgsubr
          -9 473 -8 callgsubr
        </CharString>
        <CharString name="uni045F">
          -63 60 callsubr
          80 85 75 84 74 85 hintmask 10111100
          240 -105 rmoveto
          84 hlineto
          hintmask 01111100
          105 159 72 callsubr
          -460 -233 460 -85 -500 160 vlineto
          endchar
        </CharString>
        <CharString name="uni0490">
          -49 80 callgsubr
          -55 160 13 callgsubr
          251 85 hintmask 10111000
          462 805 rmoveto
          hintmask 11011000
          -105 -342 -700 91 645 336 vlineto
          hintmask 10111000
          160 vlineto
          endchar
        </CharString>
        <CharString name="uni0491">
          -208 48 callsubr
          -40 145 45 callsubr
          173 70 hintmask 10111000
          165 77 callsubr
          243 145 -70 hlineto
          hintmask 11011000
          -105 -258 62 callgsubr
          vlineto
          endchar
        </CharString>
        <CharString name="uni1E02">
          35 82 callsubr
          75 callgsubr
          65 108 94 94 -60 60 -60 99 hintmask 1101010001000000
          5 callsubr
          hintmask 1101010010000000
          -29 callsubr
          hintmask 1011010100000000
          12 callgsubr
          hintmask 0000101000000000
          -55 464 -104 callsubr
        </CharString>
        <CharString name="uni1E03">
          -22 0 callgsubr
          -96 108 45 callsubr
          83 108 103 95 hintmask 01100101
          80 -67 callsubr
          85 -282 4 hlineto
          69 27 65 24 64 hhcurveto
          134 95 -102 -158 -159 -95 -104 -134 -80 -51 31 62 -25 hvcurveto
          -4 hlineto
          hintmask 10100101
          -81 -85 vlineto
          85 200 rmoveto
          -89 61 -71 78 84 71 59 150 vhcurveto
          hintmask 01010101
          152 -72 59 -83 -74 -65 -64 -109 vhcurveto
          hintmask 00001010
          83 371 -104 callsubr
        </CharString>
        <CharString name="uni1E0A">
          74 callgsubr
          104 89 callgsubr
          130 91 107 108 200 99 hintmask 11010100
          130 hmoveto
          700 230 vlineto
          222 153 -150 -198 -205 -163 -147 -200 hvcurveto
          -151 44 rmoveto
          110 hlineto
          218 87 162 144 161 -108 145 -197 hvcurveto
          -110 hlineto
          hintmask 00101000
          107 202 -104 callsubr
        </CharString>
        <CharString name="uni1E0B">
          -22 0 callgsubr
          -96 70 callgsubr
          95 103 108 83 85 hintmask 10010101
          52 callsubr
          hintmask 10100101
          -41 callsubr
          hintmask 01010101
          -12 callgsubr
          hintmask 00001010
          -191 371 -104 callsubr
        </CharString>
        <CharString name="uni1E1E">
          21 -21 348 34 callgsubr
          91 348 9 callsubr
        </CharString>
        <CharString name="uni1E1F">
          -263 48 callsubr
          178 34 80 89 callgsubr
          117 85 -75 108 hintmask 11101000
          -6 callsubr
          hintmask 00010100
          10 346 -104 callsubr
        </CharString>
        <CharString name="uni1E40">
          400 20 callsubr
          124 89 callgsubr
          120 44 295 108 248 91 hintmask 01101010
          188 -67 callsubr
          -68 -700 44 571 4 hlineto
          hintmask 10101010
          29 callgsubr
          hintmask 01101010
          28 callsubr
          hintmask 00010100
          -50 759 -104 callsubr
        </CharString>
        <CharString name="uni1E41">
          233 26 callsubr
          124 108 45 callsubr
          210 108 -96 85 222 85 hintmask 11001011
          -32 callsubr
          hintmask 10101011
          81 -85 -500 vlineto
          hintmask 00010100
          295 658 -104 callsubr
        </CharString>
        <CharString name="uni1E56">
          -13 95 callgsubr
          75 callgsubr
          41 108 125 98 hintmask 11101010
          -61 callsubr
          hintmask 00010100
          41 525 -104 callsubr
        </CharString>
        <CharString name="uni1E57">
          42 callgsubr
          124 108 45 callsubr
          83 108 103 95 hintmask 11100101
          -64 callsubr
          hintmask 11010101
          81 -85 vlineto
          85 -200 rmoveto
          hintmask 11100101
          -18 callsubr
          hintmask 00001010
          83 445 -104 callsubr
        </CharString>
        <CharString name="uni1E60">
          -12 callsubr
          92 108 55 callsubr
          120 108 107 84 hintmask 1010010001000000
          -55 callgsubr
          hintmask 1001000101000000
          -19 callsubr
          hintmask 1010001001000000
          -82 callsubr
          hintmask 0110010001000000
          25 callsubr
          hintmask 0000100010000000
          153 681 -104 callsubr
        </CharString>
        <CharString name="uni1E61">
          0 callsubr
          93 108 58 callsubr
          66 108 56 49 -49 75 hintmask 1010010001000000
          -76 callgsubr
          hintmask 0110100001000000
          -47 callgsubr
          hintmask 1010001010000000
          -44 callsubr
          hintmask 0001000100000000
          -156 272 -104 callsubr
        </CharString>
        <CharString name="uni1E6A">
          41 80 callgsubr
          104 89 callgsubr
          279 108 -99 91 hintmask 11001000
          -37 callsubr
          hintmask 00110000
          -9 858 -104 callsubr
        </CharString>
        <CharString name="uni1E6B">
          -251 48 callgsubr
          154 -20 149 89 callgsubr
          109 108 -100 85 hintmask 11100100
          -8 callsubr
          hintmask 00011000
          -8 377 -104 callsubr
        </CharString>
        <CharString name="uni2116">
          501 9 -21 33 -21 43 55 83 29 297 30 163 -20 32 -20 hstemhm
          120 46 518 46 55 67 181 67 hintmask 0111110111100000
          852 357 rmoveto
          119 49 31 42 34 56 -23 -127 -67 -18 -80 -72 -74 -17 84 63 vhcurveto
          -67 hmoveto
          -132 98 -44 60 60 97 44 132 116 -78 64 -79 -57 -101 -43 -137 vhcurveto
          15 -314 rmoveto
          292 55 -292 hlineto
          -116 602 rmoveto
          -535 -4 vlineto
          hintmask 0111101111100000
          -19 callgsubr
          hintmask 1011110111100000
          10 callsubr
          endchar
        </CharString>
        <CharString name="uogonek">
          -45 93 callgsubr
          140 52 -19 86 callgsubr
          85 167 61 20 85 hintmask 10111110
          450 hmoveto
          -87 callgsubr
          72 callsubr
          -310 vlineto
          hintmask 11011110
          -65 callsubr
          -85 -89 callgsubr
          hintmask 10111110
          -63 vlineto
          endchar
        </CharString>
        <CharString name="uring">
          -17 callsubr
          57 99 callgsubr
          80 85 33 86 callsubr
          31 -14 callsubr
          hintmask 0001101100000000
          66 129 -79 callgsubr
        </CharString>
        <CharString name="utilde">
          -17 callsubr
          104 76 callgsubr
          80 85 248 85 hintmask 10100110
          76 callsubr
          -89 callgsubr
          hintmask 01100110
          -84 callsubr
          hintmask 00001000
          -34 89 -71 callsubr
        </CharString>
        <CharString name="v">
          -116 -9 callgsubr
          hstem
          20 -13 callsubr
          208 -500 rlineto
          60 hlineto
          202 500 rlineto
          -47 hlineto
          -162 -401 rlineto
          -6 hlineto
          -167 401 rlineto
          endchar
        </CharString>
        <CharString name="w">
          120 21 -21 500 -86 callsubr
          endchar
        </CharString>
        <CharString name="wacute">
          -38 callsubr
          169 85 -97 callgsubr
        </CharString>
        <CharString name="wcircumflex">
          120 -9 callgsubr
          77 -21 176 -86 callsubr
          265 -98 callsubr
        </CharString>
        <CharString name="wdieresis">
          120 -9 callgsubr
          124 73 callgsubr
          250 5 callgsubr
          vstem
          -92 callgsubr
          143 -101 callsubr
        </CharString>
        <CharString name="wgrave">
          -38 callsubr
          280 -51 callsubr
        </CharString>
        <CharString name="x">
          -16 callsubr
        </CharString>
        <CharString name="y">
          -122 -250 75 675 -87 callsubr
          endchar
        </CharString>
        <CharString name="yacute">
          -42 callsubr
          -123 468 -97 callgsubr
        </CharString>
        <CharString name="ycircumflex">
          46 callsubr
          77 -21 176 -87 callsubr
          -27 511 -106 callgsubr
        </CharString>
        <CharString name="ydieresis">
          46 callsubr
          124 89 callgsubr
          129 5 callgsubr
          hintmask 11000000
          -93 callgsubr
          hintmask 00111000
          -149 541 -105 callsubr
        </CharString>
        <CharString name="yen">
          -7 -43 callgsubr
          hstem
          262 91 vstem
          20 -67 callsubr
          231 -416 rlineto
          -127 -56 138 -41 -138 -57 138 -130 91 130 138 57 -138 41 138 56 -132 hlineto
          240 416 -30 callgsubr
          endchar
        </CharString>
        <CharString name="ygrave">
          -42 callsubr
          -12 595 rmoveto
          -111 16 callsubr
          -127 rlineto
          39 hlineto
          endchar
        </CharString>
        <CharString name="z">
          58 callgsubr
          hstem
          -34 callsubr
          endchar
        </CharString>
        <CharString name="zacute">
          58 callgsubr
          85 callgsubr
          -34 callsubr
          -312 85 -97 callgsubr
        </CharString>
        <CharString name="zcaron">
          58 callgsubr
          67 callgsubr
          hintmask 11000000
          -34 callsubr
          -216 121 -74 callgsubr
        </CharString>
        <CharString name="zdotaccent">
          58 callgsubr
          104 89 callgsubr
          191 108 hintmask 11000000
          -34 callsubr
          hintmask 00110000
          -269 -80 callsubr
        </CharString>
        <CharString name="zero">
          -29 -11 44 635 44 hstem
          60 100 277 100 vstem
          60 348 rmoveto
          -167 73 -192 164 166 74 192 167 117 -48 247 -192 -190 -47 -247 -117 vhcurveto
          100 hmoveto
          140 14 180 123 126 14 -180 -140 -137 -14 -178 -126 -123 -14 178 137 vhcurveto
          endchar
        </CharString>
      <CharString index="0">
        -29 25 -25 29 -103 callsubr
        -29 -25 -25 -29 vhcurveto
        return
      </CharString>
      <CharString index="1">
        -102 callsubr
        -100 callsubr
      </CharString>
      <CharString index="2">
        50 350 rmoveto
        -150 112 -212 264 267 122 214 148 150 -122 212 -267 -264 -112 -209 -153 vhcurveto
        98 hmoveto
        187 121 131 159 157 132 -131 -187 -186 -132 -132 -157 -159 -121 132 186 vhcurveto
        return
      </CharString>
      <CharString index="3">
        -86 callgsubr
        -133 81 -132 176 85 74 31 56 53 vhcurveto
        -32 32 rlineto
        -94 callsubr
        return
      </CharString>
      <CharString index="4">
        524 -104 callgsubr
        return
      </CharString>
      <CharString index="5">
        80 -67 callsubr
        -430 vlineto
        -110 24 -172 272 171 93 115 141 vhcurveto
        -99 callsubr
        return
      </CharString>
      <CharString index="6">
        rmoveto
        -1 -149 93 -1 -1 vhcurveto
        -24 -30 rlineto
        2 150 -147 -1 vhcurveto
        50 hlineto
        -1 -1 151 145 -1 1 -25 31 rcurveline
        return
      </CharString>
      <CharString index="7">
        509 206 rmoveto
        96 -206 rlineto
        97 hlineto
        -81 callsubr
        324 45 -54 callgsubr
        return
      </CharString>
      <CharString index="8">
        117 rmoveto
        -173 383 rlineto
        -91 hlineto
        224 -494 -53 -130 rlineto
        -30 -12 -20 -21 -25 hhcurveto
        -24 -24 15 26 -12 hvcurveto
        -44 -83 rlineto
        -23 25 33 -10 27 hhcurveto
        76 32 83 72 29 hvcurveto
        242 595 rlineto
        -49 hlineto
        -157 -383 rlineto
        return
      </CharString>
      <CharString index="9">
        hstem
        38 callsubr
        vstem
        -105 callgsubr
        return
      </CharString>
      <CharString index="10">
        -96 callgsubr
        endchar
      </CharString>
      <CharString index="11">
        rmoveto
        -94 callgsubr
        return
      </CharString>
      <CharString index="12">
        -59 callgsubr
        -97 callsubr
        return
      </CharString>
      <CharString index="13">
        39 16 callsubr
        -69 callsubr
        return
      </CharString>
      <CharString index="14">
        274 -99 callgsubr
        return
      </CharString>
      <CharString index="15">
        20 -13 callsubr
        173 -500 rlineto
        54 hlineto
        116 335 27 callgsubr
        130 -335 rlineto
        47 hlineto
        182 500 105 callgsubr
        -136 -374 16 callgsubr
        -142 374 rlineto
        -20 hlineto
        -131 -377 16 callgsubr
        -130 377 rlineto
        return
      </CharString>
      <CharString index="16">
        rlineto
        -36 -26 -36 -33 -38 vvcurveto
        -45 38 -15 36 30 33 12 16 21 vhcurveto
        -11 27 rlineto
        -7 -13 -23 -10 -18 hhcurveto
        -28 -4 24 8 return
      </CharString>
      <CharString index="17">
        -81 callgsubr
        -93 36 177 187 116 23 41 89 49 -85 -91 vhcurveto
        return
      </CharString>
      <CharString index="18">
        -325 vlineto
        -48 4 -139 176 vhcurveto
        38 -1 48 13 47 47 16 16 rcurveline
        4 hlineto
        return
      </CharString>
      <CharString index="19">
        437 -42 rmoveto
        -123 -63 -45 -81 -71 -38 39 60 -36 vhcurveto
        -55 -50 rlineto
        -23 20 58 -65 110 hhcurveto
        202 39 124 134 hvcurveto
        491 -85 -78 -4 vlineto
        return
      </CharString>
      <CharString index="20">
        -46 -33 -91 callgsubr
        45 54 42 51 33 hvcurveto
        return
      </CharString>
      <CharString index="21">
        228 rmoveto
        21 vlineto
        178 -109 83 -128 -135 -102 -97 -160 return
      </CharString>
      <CharString index="22">
        -20 hstem
        -92 callsubr
        return
      </CharString>
      <CharString index="23">
        -20 hstem
        -100 callgsubr
        return
      </CharString>
      <CharString index="24">
        1 -150 -147 2 hvcurveto
        24 -30 return
      </CharString>
      <CharString index="25">
        568 249 rmoveto
        140 -99 122 -158 -160 -101 -124 -138 -137 101 -124 160 158 99 122 139 vhcurveto
        -95 hmoveto
        -185 -90 -36 -73 -72 -93 36 185 186 93 36 72 73 90 -36 -186 vhcurveto
        return
      </CharString>
      <CharString index="26">
        55 -16 -54 34 -85 hhcurveto
        -137 -91 -103 -157 -159 92 -104 135 74 59 29 63 23 hvcurveto
        4 hlineto
        133 vmoveto
        -111 -65 -62 -73 -64 return
      </CharString>
      <CharString index="27">
        -73 callsubr
        29 callsubr
        hvcurveto
        -45 callsubr
        hvcurveto
        return
      </CharString>
      <CharString index="28">
        rmoveto
        33 26 25 33 32 27 -25 -33 -33 -27 -26 -32 -33 -26 26 33 vhcurveto
        -33 hmoveto
        -50 41 -42 51 51 41 42 50 41 -30 50 -62 -61 -31 -50 -41 vhcurveto
        endchar
      </CharString>
      <CharString index="29">
        114 79 -58 -56 18 hvcurveto
        74 hlineto
        92 -39 -86 66 -161 hhcurveto
        -233 -155 -139 -216 return
      </CharString>
      <CharString index="30">
        757 312 rmoveto
        -198 -41 112 -181 hlineto
        -38 -59 -61 -19 -79 hhcurveto
        -211 -103 134 186 185 101 130 188 hvcurveto
        return
      </CharString>
      <CharString index="31">
        399 386 rmoveto
        73 -81 52 -98 -94 -73 -48 -94 vhcurveto
        -190 297 69 -134 vvcurveto
        -36 -21 -50 -86 vhcurveto
        return
      </CharString>
      <CharString index="32">
        129 rmoveto
        -77 callsubr
        return
      </CharString>
      <CharString index="33">
        -101 callgsubr
        hintmask 00110000
        -39 callsubr
      </CharString>
      <CharString index="34">
        -20 hstem
        272 91 vstem
        -78 callsubr
        return
      </CharString>
      <CharString index="35">
        61 50 -36 -47 14 hvcurveto
        69 hlineto
        96 -27 -98 27 -81 hhcurveto
        -168 -90 -117 -141 return
      </CharString>
      <CharString index="36">
        -48 callgsubr
        31 callsubr
        hintmask 10111100
        -80 callgsubr
        hintmask 01111100
        37 callsubr
        vhcurveto
        endchar
      </CharString>
      <CharString index="37">
        43 callsubr
        hintmask 10111110
        76 callsubr
        -89 callgsubr
        hintmask 01111110
        -84 callsubr
        return
      </CharString>
      <CharString index="38">
        31 -13 -35 64 -77 hhcurveto
        -78 -50 -65 -72 -84 69 -44 54 50 57 39 54 23 hvcurveto
        return
      </CharString>
      <CharString index="39">
        -12 callsubr
        53 callgsubr
        hintmask 10101001
        -55 callgsubr
        hintmask 10010011
        -19 callsubr
        hintmask 10100101
        -82 callsubr
        hintmask 01101001
        25 callsubr
        endchar
      </CharString>
      <CharString index="40">
        1 callgsubr
        124 89 callgsubr
        100 97 -85 85 hintmask 11101000
        -49 callsubr
        hintmask 11110000
        -97 -80 callsubr
      </CharString>
      <CharString index="41">
        -10 5 rcurveline
        4 vlineto
        129 8 52 98 80 vvcurveto
        73 -48 110 -179 vhcurveto
        -136 -44 rmoveto
        101 hlineto
        101 65 -62 -85 -72 -57 -83 -107 hvcurveto
        -103 hlineto
        return
      </CharString>
      <CharString index="42">
        18 -57 -40 21 -30 hhcurveto
        -51 -40 -42 -54 -18 hvcurveto
        endchar
      </CharString>
      <CharString index="43">
        rmoveto
        -62 callgsubr
        return
      </CharString>
      <CharString index="44">
        91 246 hlineto
        113 121 266 -367 rlineto
        104 hlineto
        -312 429 254 271 rlineto
        -50 hlineto
        -375 -394 rlineto
        394 -91 vlineto
        return
      </CharString>
      <CharString index="45">
        -75 63 -61 84 84 63 61 75 vhcurveto
        -42 hlineto
        return
      </CharString>
      <CharString index="46">
        268 0 74 593 44 hstem
        80 99 536 99 vstem
        795 74 rmoveto
        -232 37 hlineto
        85 20 166 54 214 vvcurveto
        200 -153 112 -214 -215 -152 -112 -200 -214 166 -54 85 -20 vhcurveto
        -37 -234 -74 284 146 vlineto
        -161 34 -41 130 89 vvcurveto
        160 103 108 165 165 103 -108 -160 -89 -41 -130 -161 -34 vhcurveto
        -146 282 vlineto
        endchar
      </CharString>
      <CharString index="47">
        -20 31 callsubr
        hintmask 01111111
        -59 callgsubr
        hintmask 10111111
        -97 callsubr
        -69 callgsubr
        return
      </CharString>
      <CharString index="48">
        264 77 callgsubr
        196 0 -118 -120 hvcurveto
        -273 -81 49 vlineto
        return
      </CharString>
      <CharString index="49">
        -67 callsubr
        -700 return
      </CharString>
      <CharString index="50">
        0 callsubr
        40 callsubr
        hintmask 10101001
        -76 callgsubr
        hintmask 01110001
        -47 callgsubr
        hintmask 10100110
        -44 callsubr
        endchar
      </CharString>
      <CharString index="51">
        -21 700 65 callgsubr
        hmoveto
        -63 callgsubr
        return
      </CharString>
      <CharString index="52">
        37 177 rmoveto
        -114 5 111 -75 151 hhcurveto
        154 99 78 121 hvcurveto
        return
      </CharString>
      <CharString index="53">
        rmoveto
        -305 hlineto
        144 337 27 callgsubr
        return
      </CharString>
      <CharString index="54">
        -9 callsubr
        94 68 callsubr
        -98 callgsubr
        return
      </CharString>
      <CharString index="55">
        160 0 44 287 40 285 44 3 callgsubr
        415 100 vstem
        10 331 rmoveto
        110 -331 242 hlineto
        200 164 145 202 201 -154 152 -222 hvcurveto
        -230 -329 -110 hlineto
        201 -40 rmoveto
        112 40 -112 285 110 hlineto
        197 108 -141 -162 -143 -87 -166 98 callgsubr
      </CharString>
      <CharString index="56">
        45 callsubr
        294 95 hintmask 11101100
        -64 callsubr
        hintmask 11011100
        return
      </CharString>
      <CharString index="57">
        hstem
        120 91 vstem
        56 callsubr
        452 -75 callsubr
        vlineto
        return
      </CharString>
      <CharString index="58">
        -251 15 callgsubr
        89 -40 90 callgsubr
        40 154 -20 hstemhm
        117 85 hintmask 10111100
        -57 callsubr
        hintmask 11011100
        262 -509 -39 callgsubr
      </CharString>
      <CharString index="59">
        -86 -12 40 -7 -21 293 43 138 37 return
      </CharString>
      <CharString index="60">
        -107 -38 77 31 hvcurveto
        -65 hlineto
        -74 71 -74 136 122 63 60 87 vhcurveto
        return
      </CharString>
      <CharString index="61">
        -27 callgsubr
        96 68 callsubr
        -95 callsubr
        return
      </CharString>
      <CharString index="62">
        109 57 41 45 31 28 -26 -17 12 vhcurveto
        34 62 rlineto
        33 -25 -46 7 -14 hhcurveto
        -56 -36 -31 -60 -24 hvcurveto
        -6 hlineto
        return
      </CharString>
      <CharString index="63">
        -27 callgsubr
        -95 callsubr
        endchar
      </CharString>
      <CharString index="64">
        21 -14 callgsubr
        return
      </CharString>
      <CharString index="65">
        -20 hstemhm
        50 98 hintmask 10111100
        -68 callsubr
        hintmask 11011100
        -89 callsubr
        return
      </CharString>
      <CharString index="66">
        31 callgsubr
        126 -21 127 -88 callsubr
        return
      </CharString>
      <CharString index="67">
        -1 callsubr
        -38 1 -51 -13 -47 -47 -16 -16 rcurveline
        -4 return
      </CharString>
      <CharString index="68">
        rmoveto
        -94 -171 34 hlineto
        endchar
      </CharString>
      <CharString index="69">
        430 -43 callgsubr
        126 -21 127 -85 callgsubr
        return
      </CharString>
      <CharString index="70">
        8 callsubr
        -76 callsubr
        endchar
      </CharString>
      <CharString index="71">
        -17 callsubr
        126 -21 127 -70 callgsubr
        return
      </CharString>
      <CharString index="72">
        -58 callgsubr
        91 return
      </CharString>
      <CharString index="73">
        498 hmoveto
        -40 callgsubr
        hlineto
        return
      </CharString>
      <CharString index="74">
        55 -67 callsubr
        -55 423 vlineto
        -448 -645 rlineto
        606 55 -461 hlineto
        444 645 rlineto
        return
      </CharString>
      <CharString index="75">
        645 55 hstem
        288 91 vstem
        -37 callsubr
        return
      </CharString>
      <CharString index="76">
        -24 callgsubr
        79 -127 -10 callsubr
        -111 hlineto
        endchar
      </CharString>
      <CharString index="77">
        rlineto
        -54 hlineto
        -214 -369 16 callgsubr
        -204 369 rlineto
        return
      </CharString>
      <CharString index="78">
        -20 89 callsubr
        hintmask 10111100
        -31 callsubr
        hintmask 11011100
        -91 callsubr
        return
      </CharString>
      <CharString index="79">
        400 20 callsubr
        hstemhm
        120 44 651 91 hintmask 01111000
        188 -67 callsubr
        -68 -700 44 571 4 hlineto
        hintmask 10111000
        29 callgsubr
        hintmask 01111000
        28 callsubr
        endchar
      </CharString>
      <CharString index="80">
        -52 -25 callsubr
        return
      </CharString>
      <CharString index="81">
        hstemhm
        100 callsubr
        hintmask 11011000
        -102 callgsubr
        return
      </CharString>
      <CharString index="82">
        -20 hstem
        160 91 vstem
        -55 callsubr
        return
      </CharString>
      <CharString index="83">
        -111 hlineto
        return
      </CharString>
      <CharString index="84">
        rmoveto
        -89 -61 -71 -78 -84 -71 59 150 152 72 59 83 74 65 -64 -109 vhcurveto
        return
      </CharString>
      <CharString index="85">
        85 188 hlineto
        58 59 201 -247 rlineto
        112 hlineto
        -251 308 191 192 rlineto
        -65 hlineto
        -246 -248 rlineto
        return
      </CharString>
      <CharString index="86">
        120 91 return
      </CharString>
      <CharString index="87">
        -64 callgsubr
        hintmask 00100110
        -7 callgsubr
        hintmask 00010110
        -22 callsubr
      </CharString>
      <CharString index="88">
        -555 547 rlineto
        -5 -712 46 535 4 hlineto
        return
      </CharString>
      <CharString index="89">
        45 callsubr
        248 85 hintmask 10101100
        76 callsubr
        -89 callgsubr
        hintmask 01101100
        -84 callsubr
        return
      </CharString>
      <CharString index="90">
        -95 -91 54 157 164 100 56 75 hvcurveto
        return
      </CharString>
      <CharString index="91">
        106 21 -21 206 45 449 -84 callgsubr
        endchar
      </CharString>
      <CharString index="92">
        191 -12 45 -12 -21 271 41 242 12 callsubr
        return
      </CharString>
      <CharString index="93">
        -21 50 callsubr
        return
      </CharString>
      <CharString index="94">
        -13 callsubr
        -500 return
      </CharString>
      <CharString index="95">
        -81 85 vlineto
        -85 200 -23 callgsubr
        return
      </CharString>
      <CharString index="96">
        372 hmoveto
        200 163 147 205 198 -153 150 -222 hvcurveto
        -230 -700 hlineto
        91 656 rmoveto
        110 hlineto
        197 108 -145 -161 -144 -87 -162 65 callsubr
        return
      </CharString>
      <CharString index="97">
        106 21 1 callsubr
        return
      </CharString>
      <CharString index="98">
        -3 callsubr
        -20 return
      </CharString>
      <CharString index="99">
        rmoveto
        4 callsubr
        hintmask 11101100
        36 callsubr
        hintmask 11011100
        4 callgsubr
        endchar
      </CharString>
      <CharString index="100">
        -60 -2 -48 -40 -55 hhcurveto
        return
      </CharString>
      <CharString index="101">
        hstemhm
        120 46 518 46 hintmask 01100011
        684 -67 callsubr
        -535 -4 vlineto
        hintmask 01010011
        -19 callgsubr
        hintmask 10100011
        10 callsubr
        return
      </CharString>
      <CharString index="102">
        87 callsubr
        348 46 306 -27 callsubr
        endchar
      </CharString>
      <CharString index="103">
        hstem
        112 85 vstem
        -49 callsubr
        return
      </CharString>
      <CharString index="104">
        0 2 callgsubr
        return
      </CharString>
      <CharString index="105">
        vstem
        120 hmoveto
        238 33 callgsubr
        -153 306 -91 hlineto
        91 -656 104 callgsubr
        128 52 callgsubr
        return
      </CharString>
      <CharString index="106">
        56 callsubr
        91 309 44 vlineto
        75 17 -26 -74 47 hvcurveto
        79 -117 rlineto
        return
      </CharString>
      <CharString index="107">
        -12 52 -40 40 54 callsubr
        return
      </CharString>
      <CharString index="108">
        -318 -9 callgsubr
        return
      </CharString>
      <CharString index="109">
        55 293 55 callgsubr
        return
      </CharString>
      <CharString index="110">
        hstem
        -21 callgsubr
        return
      </CharString>
      <CharString index="111">
        6 1 6 1 7 vhcurveto
        -95 -12 hlineto
        -98 122 0 50 vhcurveto
        return
      </CharString>
      <CharString index="112">
        108 30 108 return
      </CharString>
      <CharString index="113">
        136 0 67 633 -20 hstem
        732 hmoveto
        -304 700 rlineto
        -104 hlineto
        -294 -700 rlineto
        327 641 rmoveto
        244 -574 rlineto
        -484 hlineto
        endchar
      </CharString>
      <CharString index="114">
        -3 20 24 -3 23 hhcurveto
        57 57 24 60 43 -43 26 -44 -8 -8 0 -1 -8 hvcurveto
        return
      </CharString>
      <CharString index="115">
        268 55 -627 -55 268 return
      </CharString>
      <CharString index="116">
        -40 40 460 -20 return
      </CharString>
      <CharString index="117">
        -82 -12 52 348 123 -40 40 return
      </CharString>
      <CharString index="118">
        40 -40 148 335 40 return
      </CharString>
      <CharString index="119">
        -145 350 rmoveto
        262 122 vlineto
        103 42 -65 -62 -78 -67 -57 -80 hvcurveto
        return
      </CharString>
      <CharString index="120">
        hstemhm
        -21 callgsubr
        return
      </CharString>
      <CharString index="121">
        21 -21 460 return
      </CharString>
      <CharString index="122">
        45 callgsubr
        171 return
      </CharString>
      <CharString index="123">
        rlineto
        -4 hlineto
        return
      </CharString>
      <CharString index="124">
        -22 -229 -21 238 88 callsubr
        return
      </CharString>
      <CharString index="125">
        -64 callgsubr
        hintmask 0000100110000000
        -7 callgsubr
        hintmask 0000010110000000
        -22 callsubr
      </CharString>
      <CharString index="126">
        121 40 -121 154 -85 -154 -87 -40 return
      </CharString>
      <CharString index="127">
        45 521 12 callsubr
        return
      </CharString>
      <CharString index="128">
        36 -36 136 hstemhm
        return
      </CharString>
      <CharString index="129">
        83 callsubr
        151 259 rmoveto
        117 79 callsubr
        -120 -198 120 -198 rlineto
        68 hlineto
        return
      </CharString>
      <CharString index="130">
        -4 hlineto
        37 -45 -52 22 -70 hhcurveto
        -161 -96 -125 -140 -170 130 -88 127 112 148 62 248 return
      </CharString>
      <CharString index="131">
        14 callgsubr
        51 return
      </CharString>
      <CharString index="132">
        -110 66 callsubr
        415 712 rmoveto
        80 callsubr
        69 66 callgsubr
        endchar
      </CharString>
      <CharString index="133">
        64 49 callsubr
        309 return
      </CharString>
      <CharString index="134">
        rlineto
        4 hlineto
        return
      </CharString>
      <CharString index="135">
        rmoveto
        -47 -116 20 207 206 116 20 47 76 88 -44 -182 -183 -98 -44 -66 hvcurveto
        endchar
      </CharString>
      <CharString index="136">
        309 -583 rlineto
        18 hlineto
        316 579 27 callgsubr
        return
      </CharString>
      <CharString index="137">
        185 43 callgsubr
        hlineto
        return
      </CharString>
      <CharString index="138">
        94 -12 44 93 callsubr
        return
      </CharString>
      <CharString index="139">
        -20 13 callgsubr
        return
      </CharString>
      <CharString index="140">
        hlineto
        191 60 112 95 92 -69 95 -176 hvcurveto
        return
      </CharString>
      <CharString index="141">
        55 callgsubr
        75 callgsubr
        36 108 hintmask 11101000
        56 callsubr
        return
      </CharString>
      <CharString index="142">
        -162 -134 94 callsubr
        134 162 vhcurveto
        -65 hmoveto
        -198 162 return
      </CharString>
      <CharString index="143">
        165 59 rmoveto
        441 -85 -500 100 vlineto
        255 438 rlineto
        -438 85 500 -100 vlineto
        return
      </CharString>
      <CharString index="144">
        -55 55 645 32 callgsubr
        return
      </CharString>
      <CharString index="145">
        54 callgsubr
        endchar
      </CharString>
      <CharString index="146">
        50 95 328 95 return
      </CharString>
      <CharString index="147">
        40 -28 vlineto
        -31 -42 42 35 -27 hvcurveto
        -131 171 203 212 rlineto
        -63 hlineto
        endchar
      </CharString>
      <CharString index="148">
        69 callgsubr
        44 74 callsubr
        return
      </CharString>
      <CharString index="149">
        17 callgsubr
        -11 -20 return
      </CharString>
      <CharString index="150">
        -67 callsubr
        -85 -700 85 return
      </CharString>
      <CharString index="151">
        -250 75 675 -20 return
      </CharString>
      <CharString index="152">
        -199 -21 return
      </CharString>
      <CharString index="153">
        42 callsubr
        82 108 -30 91 -31 108 return
      </CharString>
      <CharString index="154">
        29 16 2 10 19 hvcurveto
        37 vlineto
        return
      </CharString>
      <CharString index="155">
        0 90 callgsubr
        40 return
      </CharString>
      <CharString index="156">
        61 callsubr
        hstem
        return
      </CharString>
      <CharString index="157">
        198 199 -162 162 -199 -199 102 callsubr
        -199 vhcurveto
        return
      </CharString>
      <CharString index="158">
        -20 3 callgsubr
        vstem
        19 callsubr
        return
      </CharString>
      <CharString index="159">
        vlineto
        100 70 -65 -89 -83 -63 -69 -93 hvcurveto
        return
      </CharString>
      <CharString index="160">
        55 callsubr
        335 84 return
      </CharString>
      <CharString index="161">
        69 callsubr
        36 hlineto
        return
      </CharString>
      <CharString index="162">
        46 78 callsubr
        return
      </CharString>
      <CharString index="163">
        -460 -216 460 -85 return
      </CharString>
      <CharString index="164">
        34 227 -20 hstem
        80 85 return
      </CharString>
      <CharString index="165">
        -136 48 callgsubr
        return
      </CharString>
      <CharString index="166">
        39 78 callgsubr
        -7 callsubr
        return
      </CharString>
      <CharString index="167">
        -29 -12 35 453 35 201 -20 hstem
        43 95 327 95 vstem
        return
      </CharString>
      <CharString index="168">
        -244 21 -21 452 59 -11 -20 return
      </CharString>
      <CharString index="169">
        -500 85 return
      </CharString>
      <CharString index="170">
        -27 callgsubr
        94 70 callgsubr
        94 return
      </CharString>
      <CharString index="171">
        212 -64 callgsubr
        return
      </CharString>
      <CharString index="172">
        -20 57 callsubr
        return
      </CharString>
      <CharString index="173">
        hlineto
        387 724 rlineto
        return
      </CharString>
      <CharString index="174">
        58 15 callsubr
        return
      </CharString>
      <CharString index="175">
        40 0 55 590 55 return
      </CharString>
      <CharString index="176">
        0 94 callgsubr
        return
      </CharString>
      <CharString index="177">
        89 callgsubr
        50 return
      </CharString>
      <CharString index="178">
        700 vlineto
        return
      </CharString>
      <CharString index="179">
        311 -67 callsubr
        -505 vlineto
        -65 -1 -98 -101 vhcurveto
        return
      </CharString>
      <CharString index="180">
        108 hstem
        return
      </CharString>
      <CharString index="181">
        139 0 44 612 44 return
      </CharString>
      <CharString index="182">
        104 108 13 callgsubr
        return
      </CharString>
      <CharString index="183">
        69 103 callsubr
        return
      </CharString>
      <CharString index="184">
        511 rmoveto
        return
      </CharString>
      <CharString index="185">
        hlineto
        123 return
      </CharString>
      <CharString index="186">
        145 -12 44 317 45 274 44 hstem
        return
      </CharString>
      <CharString index="187">
        21 -21 645 55 return
      </CharString>
      <CharString index="188">
        hstem
        117 85 vstem
        return
      </CharString>
      <CharString index="189">
        hstemhm
        40 86 return
      </CharString>
      <CharString index="190">
        24 24 7 5 17 hvcurveto
        return
      </CharString>
      <CharString index="191">
        -60 41 30 -44 80 hhcurveto
        return
      </CharString>
      <CharString index="192">
        81 callsubr
        hstem
        return
      </CharString>
      <CharString index="193">
        21 callsubr
        -20 hstemhm
        80 return
      </CharString>
      <CharString index="194">
        85 vstem
        165 return
      </CharString>
      <CharString index="195">
        33 117 33 return
      </CharString>
      <CharString index="196">
        108 hstemhm
        return
      </CharString>
      <CharString index="197">
        40 420 return
      </CharString>
      <CharString index="198">
        -321 -220 49 823 48 hstemhm
        return
      </CharString>
      <CharString index="199">
        115 vlineto
        24 92 -4 -103 -62 -46 return
      </CharString>
      <CharString index="200">
        -190 38 return
      </CharString>
      <CharString index="201">
        44 306 return
      </CharString>
      <CharString index="202">
        21 -21 276 44 336 44 return
      </CharString>
      <CharString index="203">
        122 rmoveto
        -94 -258 33 hlineto
        return
      </CharString>
      <CharString index="204">
        544 rmoveto
        34 168 -94 hlineto
        return
      </CharString>
      <CharString index="205">
        65 callsubr
        endchar
      </CharString>
      <CharString index="206">
        88 callgsubr
        hstemhm
        return
      </CharString>
</ttFont>
